<svg xmlns="http://www.w3.org/2000/svg" viewBox="2855 6957 90 60"><defs><style>.a{fill:none;}.b{fill:#95989a;}</style></defs><g transform="translate(2855 6957)"><rect class="a" width="90" height="60"/><path class="a" d="M60.6,46.8H59.5v4.5h1.1c1,0,1.3-.4,1.3-2.2S61.6,46.8,60.6,46.8Z"/><path class="a" d="M37.4,37.3h-.3c0,.2-.1.4-.1.6l-.6,2h1.7l-.6-2C37.5,37.7,37.4,37.5,37.4,37.3Z"/><path class="a" d="M50.6,37.1c-1,0-1.3.5-1.3,2.3s.3,2.3,1.3,2.3,1.3-.5,1.3-2.3S51.6,37.1,50.6,37.1Z"/><path class="a" d="M63.3,37.3H63c0,.2-.1.4-.1.6l-.6,2H64l-.6-2C63.4,37.7,63.3,37.5,63.3,37.3Z"/><path class="a" d="M12.5,37.1h-1v2.1h1c.8,0,1-.3,1-1.1S13.3,37.1,12.5,37.1Z"/><path class="a" d="M18.8,37.8c0-.2-.1-.4-.1-.6h-.3c0,.2-.1.4-.1.6l-.6,2h1.7Z"/><path class="a" d="M32.2,38.2c0-.8-.2-1.1-1-1h-1v2.1h1C32,39.2,32.2,39,32.2,38.2Z"/><path class="a" d="M44,39.8H43v1.9h1c.8,0,1-.2,1-.9C45,40,44.8,39.8,44,39.8Z"/><path class="a" d="M70.9,46.7c-1,0-1.3.5-1.3,2.3s.3,2.3,1.3,2.3,1.3-.5,1.3-2.3S71.9,46.7,70.9,46.7Z"/><path class="a" d="M77.1,37.1c-1,0-1.3.5-1.3,2.3s.3,2.3,1.3,2.3,1.3-.5,1.3-2.3S78.1,37.1,77.1,37.1Z"/><path class="b" d="M12.5,36a17.772,17.772,0,0,0-2.5.1v6.7h1.5V40.3c.4,0,.8.1,1.2.1,1.6,0,2.2-.5,2.2-2.2C15,36.5,14.4,36,12.5,36Zm0,3.2h-1V37.1h1c.8,0,1,.2,1,1S13.3,39.2,12.5,39.2Z"/><path class="b" d="M17.4,41h2.3l.5,1.7h1.5l-1.9-6.3a.664.664,0,0,0-.5-.4H17.9c-.2,0-.5.1-.5.4l-1.9,6.3H17Zm.9-3.2c0-.2.1-.4.1-.6h.3c0,.2.1.4.1.6l.6,2H17.7Z"/><path class="b" d="M27.1,41.1c0-1.1-.3-1.7-1.3-1.8.8-.1,1.1-.6,1.1-1.5,0-1.4-.6-1.7-2.3-1.7a6.5,6.5,0,0,0-2.1.2l.1,1.1a11.483,11.483,0,0,1,1.9-.1c.7,0,.9.2.9.8s-.2.8-.9.8H23.2v1h1.3c.8,0,1,.2,1,1,0,.7-.2.9-1,.9a17.959,17.959,0,0,1-2.2-.2l-.1,1a9,9,0,0,0,2.5.3C26.5,42.8,27.1,42.5,27.1,41.1Z"/><path class="b" d="M30.2,40.3c.4,0,.8.1,1.2.1,1.6,0,2.2-.5,2.2-2.2S33,36,31.2,36a18.521,18.521,0,0,0-2.5.1v6.7h1.5Zm0-3.1h1c.8-.1,1,.2,1,1s-.2,1-1,1.1h-1Z"/><path class="b" d="M38.9,42.8h1.5l-1.9-6.3a.664.664,0,0,0-.5-.4H36.6c-.2,0-.5.1-.5.4l-1.9,6.3h1.5l.5-1.7h2.3Zm-2.5-2.9.6-2c0-.2.1-.4.1-.6h.3c0,.2.1.4.1.6l.6,2Z"/><path class="b" d="M46.5,40.8c0-1.5-.6-2-2.5-2H43V37.2h2.9l.1-1.1c-.7,0-1.5-.1-2.3-.1a18.484,18.484,0,0,0-2.3.1v6.7a19.269,19.269,0,0,0,2.4.1C45.6,42.8,46.5,42.6,46.5,40.8Zm-2.5.9H43V39.8h1c.8,0,1,.2,1,1C45,41.5,44.8,41.7,44,41.7Z"/><path class="b" d="M53.4,39.4c0-2.7-.7-3.5-2.8-3.5s-2.8.8-2.8,3.5.7,3.5,2.8,3.5S53.4,42.1,53.4,39.4Zm-2.8,2.3c-1,0-1.3-.5-1.3-2.3s.3-2.3,1.3-2.3,1.3.5,1.3,2.3S51.6,41.7,50.6,41.7Z"/><path class="b" d="M59.9,36.1H54.4v1.2h2v5.5h1.5V37.3h2Z"/><path class="b" d="M64.3,36.5a.664.664,0,0,0-.5-.4H62.4c-.2,0-.5.1-.5.4L60,42.8h1.5l.5-1.7h2.3l.5,1.7h1.5Zm-2,3.4.6-2c0-.2.1-.4.1-.6h.3c0,.2.1.4.1.6l.6,2Z"/><path class="b" d="M68.9,39.8h2.3v3h1.5V36.1H71.2v2.5H68.9V36.1H67.4v6.7h1.5Z"/><path class="b" d="M77.1,36c-2.1,0-2.8.8-2.8,3.5S75,43,77.1,43s2.8-.8,2.8-3.5C80,36.8,79.2,36,77.1,36Zm0,5.7c-1,0-1.3-.5-1.3-2.3s.3-2.3,1.3-2.3,1.3.5,1.3,2.3S78.1,41.7,77.1,41.7Z"/><path class="b" d="M19.6,50.5c-.1.2-.1.5-.2.7h-.2a1.854,1.854,0,0,0-.2-.7l-1.2-4.8H16.3l1.8,6.2a.664.664,0,0,0,.5.4h1.3a.458.458,0,0,0,.5-.4l1.8-6.2H20.7Z"/><rect class="b" width="1.5" height="6.7" transform="translate(23.6 45.7)"/><path class="b" d="M33.6,45.7H32.2a.634.634,0,0,0-.6.5l-.8,3.3c-.1.3-.1.6-.2.9h-.1a2.92,2.92,0,0,0-.2-.9l-.8-3.3a.634.634,0,0,0-.6-.5H27.5c-.4,0-.5.2-.5.5l-.3,6.2h1.4l.2-5.5h.2l1,4.1a.634.634,0,0,0,.6.5h1a.634.634,0,0,0,.6-.5l1-4.1h.2l.2,5.5h1.4l-.3-6.1Q34.05,45.7,33.6,45.7Z"/><path class="b" d="M41.8,48.6l-1.3-.4c-.5-.2-.7-.3-.7-.8,0-.6.3-.6,1-.6h2.1l.1-1a8.329,8.329,0,0,0-2.2-.3c-1.7,0-2.4.3-2.4,1.8a1.75,1.75,0,0,0,1.4,1.9l1.3.5a.661.661,0,0,1,.6.7c0,.5-.2.6-1,.6H38.5l-.1,1.1a14.282,14.282,0,0,0,2.3.3c1.8,0,2.5-.4,2.5-1.9A1.785,1.785,0,0,0,41.8,48.6Z"/><path class="b" d="M44.2,46.9h2v5.5h1.5V46.9h2V45.7H44.2Z"/><path class="b" d="M54.7,49.7h0c.1,1.2-.2,1.6-1.1,1.6s-1.2-.4-1.2-1.6v-4H50.9v4c0,2,.7,2.8,2.7,2.8,1.9,0,2.6-.7,2.6-2.8v-4H54.7Z"/><path class="b" d="M60.6,45.7a20.924,20.924,0,0,0-2.6.1v6.6c.8,0,1.6.1,2.6.1,2.1,0,2.8-.8,2.8-3.4S62.7,45.7,60.6,45.7Zm0,5.6H59.5V46.8h1.1c1,0,1.3.5,1.3,2.3S61.6,51.3,60.6,51.3Z"/><rect class="b" width="1.5" height="6.7" transform="translate(65 45.7)"/><path class="b" d="M70.9,45.6c-2.1,0-2.8.8-2.8,3.5s.7,3.5,2.8,3.5,2.8-.8,2.8-3.5S73,45.6,70.9,45.6Zm0,5.7c-1,0-1.3-.5-1.3-2.3s.3-2.3,1.3-2.3,1.3.5,1.3,2.3S71.9,51.3,70.9,51.3Z"/><path class="b" d="M59.1,7.4l-11.5,26H43L31.5,7.4l4.6.8,9.2,17.5L54.5,8.2ZM25.2,33h6.2l5.3-10.9L34,15.8ZM56.4,16.2l-2.7,6.3L59,33.4h6.2Zm-9.9,4.4,4.8-8.5-6,3.7-5.9-3.7,4.7,8.5Z"/></g></svg>