<svg xmlns="http://www.w3.org/2000/svg" viewBox="-166 2390 200 88.058"><defs><style>.a{fill-rule:evenodd;}</style></defs><path d="M16.54 2478c4.3.44 8-1.98 10.78-4.87l.16-.75c-2.73 1.87-5.52 4.88-9.43 3.9a3.58 3.58 0 0 1-2.47-3.15c-.6-5.26 2.68-9.55 5.25-12.87 2.15-2.74 5.1-4.83 8.9-4.83.43 0 1.45.32 1.45.86-.1 1.17-1.88 2.56-1.18 3.96.38.85 1.66.96 2.58.37a2.98 2.98 0 0 0 1.4-2.95 3.1 3.1 0 0 0-2-2.73 16.3 16.3 0 0 0-13.45 4.23c-4.3 4.08-7.4 8.42-7.2 14.6.12 3 2.7 4 5.2 4.23zm-57.86-.1c3.27-.1 5.42-2.4 7.56-4.77a4.46 4.46 0 0 0 .9-1.4c.12-.32-.8.1-.95.32-1.4 1.35-2.6 3.17-4.36 3.6-.64.1-1.07 0-.8-.54l7.3-15.8c1.3-2.74.37-5.85-3.1-4.67-5.64 1.93-9.45 7.08-11.6 9.5l4.3-9.56-7.68 1.13-.2.75c1.97.22 3.1.1 2.35 1.66l-9.43 19.16h3.6a61.73 61.73 0 0 1 12.7-17.43c1.66-1.6 7.18-4.08 5.84-1.3l-7.44 15.56c-.64 1.4-.64 3.2 1.02 3.8zm-41.6-.22c4.76.65 8.03-2.73 11.46-5.95-.8 1.5-2.14 3.5-1.28 5.15.48 1.07 2.36.9 3.2.6 2.75-.92 5-3.55 6.88-6.02.1-.16-.5-.05-.6-.05-.58.28-2.94 3-4.98 3.87-1.02.43-.86-.05-.7-.32l10.03-20.38-3.87.38-1.18 2.14-.92-1.72c-.64-1.4-3.1-1.24-4.6-.76a27.97 27.97 0 0 0-15.83 14.64c-1.4 3.22-1.55 7.94 2.36 8.42zm3-2.73c3.47.43 5.73-2.25 7.82-4.72 2.62-3.22 7.34-11.42 6.38-13.35-.8-1.66-2.52-1.4-3.92-.7a23.32 23.32 0 0 0-11.96 15.23c-.37 1.5-.1 3.33 1.67 3.55zm-41.14 2.47c3.32 1.02 5.84-2.36 8.04-5.04.27-.38.86-1.34.5-1.18-1.95.75-3 4.13-5.48 3.75-.6-.05-.38-1.02-.17-1.55l8.42-16.84h3.97l.54-1.67h-3.8l2.62-5.9c1.12-2.63-4.67 4.88-9.76 6.38-1.3.32-.97.75-1.02 1.18h3.38l-8.42 17.37c-.48 1.02.05 3.1 1.18 3.5zm96.42 0c3.32 1.02 5.9-2.36 8.04-5.04.32-.38.9-1.34.54-1.18-1.93.75-3.06 4.13-5.52 3.75-.6-.05-.38-1.02-.1-1.55l8.4-16.84h3.98l.54-1.67h-3.8l2.56-5.9c1.18-2.63-4.6 4.88-9.76 6.38-1.3.32-.9.75-1.02 1.18h3.38l-8.37 17.38c-.53 1.02 0 3.1 1.13 3.48zm18.66 0c3.27.96 5.95-2.42 8.04-5.04.22-.33.8-1.34.5-1.18-1.9.7-3.07 4.02-5.48 3.75-.5 0-.38-1.02-.1-1.55l8.95-18.67-7.14 1.13c-.54.05-.6.37-.6.75 1.13.23 3.17-.04 2.36 1.5l-7.72 15.83c-.37.8.1 3.17 1.18 3.5zm-96.63 0c3.26.96 5.94-2.42 8.1-5.04.2-.33.74-1.34.47-1.18-1.88.7-3.06 4.02-5.52 3.75-.5 0-.33-1.02-.1-1.55l14.9-31.2-6.87.84c-.32 0-1.02.27-.8.8 2.04.33 2.52.8 2.2 1.5l-13.52 28.6c-.43.8.05 3.16 1.13 3.48zm-44.52-.65h11.8l.43-.85c-1.44-.06-1.87-.16-.85-2.58l12.92-30.62H-124l-36.32 30.62c-1.44 1.18-2.62 2.36-5.14 2.36l-.54.9h8.96l.53-.8c-1.9-.04-3.5-.7-1.94-1.97l10.56-8.85h10.14l-3.86 7.93c-1.07 2.37-1.98 2.9-5.04 2.96l-.48.9zm10.3-13.78l5.78-12.5L-146 2463zm143.55-14.43a3.38 3.38 0 0 0 2.73-.8c.92-1.3 1.08-4.35-1.18-4.2a3 3 0 0 0-2.9 2.64c-.04.8.28 2.37 1.35 2.37zm-67.46-27.73l-.03-17.97 7.8 16.85a33.13 33.13 0 0 1-7.77 1.12zm-1.78 0l.02-17.97-7.8 16.85a33.13 33.13 0 0 0 7.77 1.12zm.88-29.27a2.78 2.78 0 1 1-2.78 2.77 2.78 2.78 0 0 1 2.78-2.77zm0-1.57a4.33 4.33 0 0 1 1.67 8.34h.36l9.62 20.28a14.75 14.75 0 0 0 4.04-1.6l-.6-1.2 4.72-.34-2.78 4.03-.53-1.05a23.27 23.27 0 0 1-4.08 1.9l4.5 9.15.58 4.38-3.37-3.4-4.47-9.2a46.92 46.92 0 0 1-9.65 1.23 46.94 46.94 0 0 1-9.65-1.23l-4.48 9.2-3.37 3.4.6-4.37 4.5-9.14a23.25 23.25 0 0 1-4.1-1.9l-.52 1.05-2.78-4.02 4.72.34-.6 1.2a14.78 14.78 0 0 0 4.04 1.6l9.7-20.4a4.33 4.33 0 0 1 1.94-8.22z" class="a"/></svg>