<svg xmlns="http://www.w3.org/2000/svg" viewBox="794 2429 200 47.841"><defs><style>.a{fill-rule:evenodd;}</style></defs><path d="M841.56 2429.46l-1.4 1.68-2.32 7.43-2.04 6.04v6.8c0 1.75.65 2.77 2.04 3.24h-7.6v-.1c1.2-.46 1.85-1.4 1.85-3.15v-6.8l-2.06-6.03-2.13-7.43a3.05 3.05 0 0 0-1.67-1.86v-.2h6.32v.2a1.8 1.8 0 0 0-1.12 2.04l1.58 4.46.94 3.25 1.12-3.25 1.4-4.46a1.8 1.8 0 0 0-1.12-2.04v-.2h6.22v.4zm19.78 2.88v19.05c0 1.75.65 2.77 2.05 3.24h-7.8a3.1 3.1 0 0 0 2.22-3.25v-13.58l-5.02 17.2-4.27-17.2v13.57c0 1.75.55 2.77 1.95 3.24h-7.52c1.2-.47 1.86-1.5 1.86-3.25v-19.06a2.88 2.88 0 0 0-1.86-3.06v-.2h6.32l3.53 13.95 4.1-13.94h6.5v.18c-1.4.28-2.05 1.4-2.05 3.06zm9.94 34.75c-.65-1.78-1.57-2.52-2.78-2.52-1.77.18-2.7 1.86-2.7 5.1 0 3.07.93 4.84 2.7 5.1a3 3 0 0 0 2.13-1.2v-2.22h-1.85l-.65.46h-.1v-2.4h4.65v6.6h-.18l-.65-.48-.47.2a4.16 4.16 0 0 1-2.88 1.1c-2.97-.46-4.64-2.78-5-7.15.17-4.47 1.84-6.8 5-7.25a2.65 2.65 0 0 1 2.42.74l1.58.17v.1zm44.6-24.8c0 4.45-.95 7.12-2.23 8.07-1.23.9-1.75 1.02-1.96 1.02h-3.9v-18.22h3.9c.2 0 .7.15 1.94 1.02 1.27.9 2.24 3.62 2.24 8.08zm-3.9-13.2h-9.76v.18a2.88 2.88 0 0 1 1.86 3.07v19.04c0 1.76-.65 2.78-1.86 3.24h9.75a9.26 9.26 0 0 0 3.72-1.48c2.15-1.27 3.7-5 3.7-11.34 0-6.23-1.57-9.94-3.7-11.14a11.76 11.76 0 0 0-3.72-1.58zm-115.94 3.24v19.23a2.88 2.88 0 0 1-2.04 3.07h7.62a3.15 3.15 0 0 1-2.23-3.07v-6.5h2.96l3.06 9.57h4.84v-.1c-.65-.36-1.4-1.57-2.32-3.7l-2.05-6.42c2.5-1.4 3.7-3.8 3.9-7.43-.3-4.74-2.5-7.25-6.5-7.72h-9.02v.2a2.9 2.9 0 0 1 1.77 2.87zm3.35.65h3.42l.93.18c1.68.74 2.6 2.14 2.6 4.46a4.07 4.07 0 0 1-2.6 4.18l-.93.18h-3.43v-9zm18.3 13.46l1.84-11.14 2.05 11.14zm5.84-17.37h-7.9v.18c.84.18.93 1.1.84 2.78l-1.86 10.87-1.58 8.46a5.24 5.24 0 0 1-1.58 3.15v.1h6.5v-.1c-.74-.38-1.2-1.3-1.2-2.98l.27-1.67h5.1l.4 1.67c0 1.67-.48 2.8-1.4 2.98v.1h6.77v-.1l-1.67-3.16-1.58-8.47-1.85-10.86c-.2-1.68.18-2.6.74-2.8v-.18zm49.42-.1c-5.16 0-8.64 4.9-8.64 12.82s3.5 12.82 8.64 12.82c5.32 0 8.64-4.9 8.64-12.82s-3.3-12.82-8.64-12.82zm4.92 13.28c0 5.4-1.9 9.06-4.92 9.1-3 .05-4.93-3.52-4.93-9.1 0-5.76 1.92-9.3 4.93-9.3s4.92 3.54 4.92 9.3zm-3.34 20.25H883v2.98a1.33 1.33 0 0 0-.94-.92h-4.46v4.18h2.97l.93-.74h.1v3.25h-.1l-.93-.66h-2.97v4h4.46a1.3 1.3 0 0 0 .93-1v3.06h-8.46a1.84 1.84 0 0 0 .93-1.67v-10.7a2 2 0 0 0-.93-1.77zm19.14 1.77v10.68a1.7 1.7 0 0 0 1.1 1.67h-2.96l-4.28-9.93v8.26a1.62 1.62 0 0 0 1.03 1.68h-4.2a1.68 1.68 0 0 0 .94-1.68v-10.68a1.82 1.82 0 0 0-.92-1.77h3.44l3.72 8.36v-6.6a2.4 2.4 0 0 0-1.12-1.77h4.37a1.83 1.83 0 0 0-1.13 1.77zm5.3-31.96v19.05c0 1.75.64 2.77 2.04 3.24h-5.1l-7.9-18.2v14.95c0 1.75.55 2.77 1.94 3.24h-7.52c1.4-.47 1.95-1.5 1.95-3.25v-19.06c0-1.67-.57-2.6-1.96-3.06v-.2h6.03l7.06 15.7v-12.44a3.05 3.05 0 0 0-1.95-3.06v-.2H901v.2c-1.4.28-2.03 1.4-2.03 3.06zm-2.8 30.2h8.55v2.97h-.18l-.93-.92h-4.37v4.18h2.8l.9-.74v3.25l-.92-.66h-2.78v4h4.37l1.1-1v3.06h-8.54a1.68 1.68 0 0 0 .93-1.67v-10.7a1.83 1.83 0 0 0-.92-1.77zm18.77 0c-.46.18-.93.92-1.3 2.04l-1.02 5.85-.93 4.65c-.18.18 0 .83.47 1.57H908l.54-1.57-.92-4.65-1.2-5.85c-.3-1.12-.66-1.86-1.13-2.05h3.9c-.47.2-.66.84-.66 1.77l.84 4.27.74 3.44.75-3.43.65-4.27a1.5 1.5 0 0 0-.65-1.77h4.08zm.56 0h8.74v2.97h-.18l-.93-.92h-4.37v4.18h2.7l1-.74v3.25l-1-.66h-2.7v4h4.36l.93-1h.2l-.2 3.06h-8.54a1.6 1.6 0 0 0 1.12-1.67v-10.7c0-.93-.28-1.58-1.12-1.77zm11.06-33.26v-.2h6.6v.2c-1.02 1.4-1.4 2.5-.93 3.44l2.5 13 1.12-6.04 1.5-7.6c0-1.7-.3-2.6-1.03-2.8v-.2h6.13v.2c-.56.2-.93 1.1-.93 2.8l1.4 7.6 1.3 6.04 2.4-13c.47-.93.2-2.05-.92-3.44v-.2h6.7v.2c-.76.2-1.4 1.4-2.06 3.44l-1.86 10.68-1.67 8.64c-.45.74 0 1.58 1.13 2.6h-6.87v-.1c.84-.18 1.1-1.3.93-2.97l-1.5-6.96-1.12-5.38-1.12 5.38-1.4 6.97c-.08 1.67.2 2.8.94 2.97v.1h-6.78c1.1-1.03 1.4-1.86.93-2.6l-1.58-8.65-1.95-10.68c-.65-2.05-1.3-3.26-1.86-3.44zm26.75-.2h15.06l.28 5.6c-.2-.94-.93-1.5-2.05-1.96h-7.9v7.52h5.1a3.4 3.4 0 0 0 1.86-1.2v5.75c-.74-.84-1.4-1.3-1.86-1.3h-5.1v7.6h7.9a3.16 3.16 0 0 0 2.04-1.85l-.28 5.4H953.3c1.22-.48 1.87-1.5 1.87-3.26v-19.06a2.88 2.88 0 0 0-1.86-3.06zm24.17.2c-1.12.46-1.68 1.4-1.68 3.06v19.05c-.2 1.75.46 2.68 1.67 3.15v.1h-7.44c1.4-.48 2.05-1.5 2.05-3.26v-19.06a3.03 3.03 0 0 0-2.05-3.25h7.44zm1.2 0v-.2h7.15v.2c-1.1.46-1.67 1.4-1.67 3.06v18.58h7.7a2.6 2.6 0 0 0 2.05-1.67h.1l-.28 5.4h-15.14v-.1c1.2-.47 1.86-1.4 1.86-3.16v-19.06a2.93 2.93 0 0 0-1.77-3.06z" class="a"/></svg>