<svg xmlns="http://www.w3.org/2000/svg" viewBox="154 2380 200 98.011"><defs><style>.a{fill-rule:evenodd;}</style></defs><path d="M290.2 2398.52l-2.85-4.13.25-.4 2.96 4.3zm-10.26.5h-.57l-.1-.03-.08-.03-.08-.02-.06-.04-.72-.53-.13-.12v-.1l.1-.1.16-.04.23-.04.25-.03.28-.02h.28l.26-.03.2-.02.23-.05.23-.05.26-.08.22-.1.2-.13.2-.15.1-.2.08-.2v-.26l-.07-.28-.08-.16-.1-.14-.1-.12-.1-.1-.1-.08-.13-.07-.13-.06-.16-.04h-.13l-.14-.02-2-.03h-.24l-.13-.02h-.14l-.13-.04-.1-.05-.1-.06-.04-.08-.02-.1.04-.12.18-.45.02-.08-.02-.08-.04-.08-.05-.06-.06-.07-.08-.08-.07-.06-.08-.07-.07-.08-.05-.07-.6-1-.02-.08-.03-.07v-.07l-.02-.04V2392.58l.02-.05.03-.03h.1l2.44-.04.2.02.18.05.17.08.16.1.18.12.16.1.16.1.17.1.17.05.2.02h1.32l.1-.02.1-.02.08-.02.1-.05.08-.03.08-.07.08-.07.08-.1.08-.1.03-.07v-.18l-.06-.1-.05-.08-.07-.08-.1-.07-.07-.06-.08-.04h-.98v-.18l.04-.17.1-.13.1-.1.18-.1.17-.06.2-.03h.33l.14.05h4l-1 2.24-.03.06-.02.05v.07l-.02.06v.13l.02.05.02.06.02.06v.04l.9 1.5h-3.1l-.05.02-.05.02-.04.03-.04.03-.03.04-.03.04-.02.06-.02.05v2.17l-.04.1-.07.1-.08.1-.1.07-.1.07-.13.07-.15.06-.16.04-.16.03-2.3.3zm3.48 2.57l-1.38-1.34.18-.03.18-.02.17-.02.18-.03.18-.03.17-.05.17-.05.17-.06.16-.08.16-.1.28-.2.23-.2.2-.26.13-.27.12-.27.1-.27.04-.26.05-.26.03-.23.02-.22 2.7.03 2 3.03-2.27-1-.78 1.92-2.3-1.53-.88 1.78zm-3.37.45l.15-1.72h1.05l.14-.02h.14l-1.5 1.75zm-1.83 1l-.17-.15-.15-.15-.14-.16-.16-.18-.14-.16-.15-.16-.13-.17-.16-.16-.15-.17-.16-.15-.42-.36-.43-.35-.42-.33-.43-.3-.43-.3-.45-.25-.46-.23-.45-.2-.46-.2-.5-.13-.23-.05-.24-.03-.25-.02h-.24l-.25.02-.24.03-.25.04-.23.04-.25.06-.24.06v-1.72l.83-.35.87-.13.88.07.9.23.9.36.87.48.87.55.8.6.8.6.7.57v2.82zm8.85 4.22l-2.58-2.3-1.33 2.04-1.3-1.58-2.13 1.52.13-1.54 2.05-2.56 2.18 1.32.85-1.9 2.52 1.78.72-2.12 1.9 1.17.74 2.88-2.78-.9-1 2.2zm-13.54 3.5h-.42l-.4-.03-.38-.07-.38-.12-.36-.15-.37-.2-.35-.24-.36-.28-.36-.33-.35-.38v-7.7l.24-.22.3-.2.3-.2.35-.13.36-.1.37-.06h.4l.4.1.43.15.42.24.3.2.3.18.3.2.3.2.3.23.3.23.3.25.28.26.27.28.26.3.36.5.32.56.27.56.2.6.16.6.1.6v.62l-.05.6-.12.6-.2.57-.23.36-.27.32-.34.26-.4.23-.4.17-.42.15-.45.1-.44.08-.45.05-.42.02zm24.5 4.36l-.8-.66.2-.5.18-.52.14-.53.1-.56.08-.56.04-.57v-1.18l-.06-.57-.1-.58-1.1-6.14-.05-.37v-.4l.02-.36.07-.36.12-.33.16-.3.22-.26.27-.2.33-.17.4-.07h.4l.36.04.34.1.3.12.27.18.25.2.2.24.2.27.13.3.1.3 1.5 4.94-1.04-.43-1.2-3.73-.06-.24-.08-.24-.1-.24-.1-.23-.13-.2-.15-.18-.2-.14-.22-.1-.26-.03-.3.02-.23.04-.18.1-.16.14-.1.17-.1.2-.05.2v.22l-.02.22.02.22.02.2 1.28 6.6.04.62.02.62v1.2l-.03.6-.08.58-.12.58-.17.57-.23.55-.3.56zm-19.52 16.77v-.4l.04-.2.06-.18.1-.2.1-.18.14-.18.14-.18.15-.2.17-.18.37-.37.4-.33.4-.32.4-.3.38-.3.36-.3.34-.33.3-.34.23-.37.18-.4.1-.45v-.42l-.07-.4-.14-.43-.2-.4-.25-.42-.3-.4-.34-.4-.35-.4-.35-.4-.3-.35-.28-.37-.23-.4-.2-.38-.1-.4-.04-.4.04-.36.15-.36.24-.32.38-.3.33-.2.34-.16.34-.15.34-.12.35-.1.35-.1.36-.06.35-.06.35-.05.34-.04.4-.04.38-.03.38-.03.4-.02H286.7l.38.04.4.04.38.05.6 2.2-.24.1-.23.12-.24.14-.23.14-.22.17-.2.18-.2.2-.18.22-.17.25-.13.26-.15.4-.1.4-.05.45.02.44.07.45.14.46.18.45.22.44.28.42.33.4-.15.1-.16.08-.17.1-.18.1-.2.1-.2.12-.2.12-.2.14-.17.14-.18.16-.47.5-.4.46-.33.46-.27.45-.24.45-.18.45-.18.45-.15.45-.13.47-.15.47h-4.54zm18.2 0l.3-.26.33-.23.35-.2.36-.2.37-.2.36-.22.34-.24.33-.28.28-.33.25-.4.13-.44.1-.47.04-.5-.03-.46-.1-.48-.13-.47-.22-.43-.3-.4-.37-.36-.46-.3-.6-.22-.6-.2-.58-.2-.58-.18-.58-.2-.6-.2-.57-.24-.58-.27-.6-.32-.6-.35-.24-.16-.27-.2-.27-.22-.28-.23-.28-.25-.27-.27-.25-.28-.2-.3-.2-.3-.1-.3-.94-2.83-.07-.25-.1-.27-.1-.28-.12-.3-.12-.27-.14-.26-.15-.3-.2-.26-.17-.24-.18-.23-.34-.33-.33-.25-.33-.2-.34-.15-.33-.14-.33-.13-.33-.17-.32-.23-.32-.3-.32-.37-.13-.2-.12-.2-.1-.2-.1-.17-.1-.18-.07-.18-.06-.18-.05-.18-.06-.17-.04-.16-.17.1-.17.13-.18.13-.17.14-.17.13-.18.14-.18.14-.2.16-.2.14-.22.15-.74.46-.72.36-.75.25-.74.18-.75.12-.73.07-.74.04-.74.04-.74.05-.74.05-.53.07-.5.1-.48.1-.48.1-.47.16-.47.18-.45.2-.47.26-.47.3-.5.36v-3.88l1 .36 1 .25.98.14h1l.94-.08.92-.2.9-.27.84-.38.8-.46.76-.53.15-.14.13-.13.1-.14.1-.14.1-.15.1-.13.1-.14.1-.14.13-.13.15-.12 1.17-1.04 1.72 2.25 1.78-2.6 2.56 2.45 1.53-2.9 2.4 1.1.15.18.15.2.12.2.1.22.1.24.1.22.1.24.1.23.1.22.1.23.25.55.28.54.3.55.35.53.36.54.4.54.4.53.44.52.45.5.47.48.26.25.25.27.25.28.23.28.2.3.22.3.2.32.17.3.15.3.15.32 1.83 4.25.17.26.2.28.2.28.22.26.24.25.26.25.3.24.3.23.33.23.34.2-.07.16-.05.18-.06.2-.06.2-.05.23-.07.23-.04.23-.05.24-.03.22-.03.23-.35 3-.03.2-.05.23-.04.2-.06.18-.08.17-.1.14-.1.13-.1.1-.13.05h-.14l-4.25.02zm-78.93-33.38l2.87-4.13-.26-.4-2.96 4.3zm10.28.5H228.6l.1-.03.1-.03.06-.02.06-.04.72-.53.12-.12v-.1l-.08-.1-.16-.04-.23-.04-.27-.03-.28-.02h-.28l-.25-.03-.2-.02-.24-.05-.25-.05-.24-.08-.25-.1-.2-.13-.18-.15-.14-.2-.07-.2v-.26l.08-.28.08-.16.08-.14.1-.12.12-.1.12-.08.12-.07.13-.06.13-.04h.14l.14-.02 2-.03h.25l.14-.02h.12l.12-.04.1-.05.1-.06.04-.08.02-.1-.03-.12-.18-.45-.03-.08.02-.08.02-.08.06-.06.06-.07.07-.08.1-.06.07-.07.06-.08.04-.07.6-1 .03-.07.02-.07.02-.06.02-.05V2392.58l-.03-.05-.03-.03h-.04l-.05-.02-2.43-.02h-.2l-.17.07-.17.08-.16.1-.17.12-.16.1-.16.1-.17.08-.16.07-.2.02h-1.33l-.1-.02-.08-.02-.1-.03-.07-.04-.1-.04-.07-.06-.08-.07-.1-.1-.06-.1-.03-.07v-.1l.02-.08.05-.1.06-.08.07-.1.1-.06.08-.05.1-.05h.07l.88.02.02-.2-.05-.16-.1-.14-.1-.1-.18-.1-.18-.06-.18-.03H225.42l-.14.05h-4l1 2.24.04.06v.05l.02.07v.24l-.02.06-.02.06-.03.04-.9 1.5h3.1l.06.02.04.03h.04l.05.04.03.03.02.05.02.04.02.05v2.17l.04.1.06.1.08.1.1.07.1.07.14.08.14.05.16.05.17.02 2.32.32zm-3.5 2.57l1.38-1.34-.17-.03-.18-.02-.17-.02-.17-.03-.17-.03-.18-.05-.17-.05-.16-.06-.16-.08-.16-.1-.28-.2-.24-.2-.18-.26-.15-.27-.12-.27-.08-.27-.06-.26-.04-.26v-.23l-.03-.22-2.7.03-2 3.04 2.24-1 .8 1.92 2.32-1.53.85 1.8zm3.37.45l-.13-1.72h-1.07l-.14-.02h-.16l1.48 1.75zm1.85 1l.16-.15.15-.15.15-.16.14-.18.15-.16.15-.16.14-.17.17-.16.16-.17.16-.15.4-.36.43-.35.42-.33.42-.3.45-.28.44-.27.45-.23.47-.2.47-.2.48-.13.25-.04.25-.04.25-.02h.24l.27.02.25.03.25.04.25.04.24.06.24.06v-1.72l-.83-.35-.86-.13-.88.07-.9.23-.88.37-.9.47-.85.55-.83.6-.78.6-.73.57v2.82zm-8.85 4.22l2.58-2.3 1.3 2.04 1.33-1.58 2.12 1.52-.14-1.54-2.03-2.56-2.18 1.32-.87-1.9-2.5 1.78-.74-2.12-1.9 1.17-.77 2.9 2.8-.9.98 2.17zm13.53 3.5h.4l.42-.03.4-.07.37-.12.37-.15.38-.2.36-.24.36-.28.35-.33.35-.38v-7.7l-.25-.22-.3-.2-.3-.2-.34-.13-.36-.1-.38-.06h-.4l-.4.1-.44.15-.42.24-.3.2-.3.18-.3.2-.3.2-.3.23-.3.22-.3.26-.27.26-.27.27-.26.3-.37.5-.32.56-.26.57-.2.6-.16.6-.08.6-.02.62.06.6.12.6.2.56.22.37.28.32.33.27.37.22.4.18.44.14.45.1.45.1.43.05.42.03zm-24.5 4.36l.8-.66-.2-.5-.17-.52-.14-.53-.1-.56-.08-.56-.04-.57v-1.18l.06-.57.1-.58 1.1-6.14.04-.37.02-.4-.03-.36-.06-.36-.1-.33-.18-.3-.22-.26-.27-.2-.32-.17-.4-.07h-.4l-.36.04-.36.1-.3.12-.27.18-.24.2-.2.24-.18.27-.15.3-.1.3-1.5 4.96 1.04-.44 1.18-3.74.07-.24.08-.24.1-.23.1-.23.13-.2.16-.18.2-.13.22-.1.27-.05.3.02.23.05.2.1.14.14.12.17.08.18.05.2.03.24V2402.42l-.04.2-1.28 6.6-.03.62-.03.62-.02.6v.6l.06.6.07.58.13.58.17.57.22.57.3.55zm19.52 16.77l.03-.2v-.2l-.05-.2-.08-.18-.1-.2-.1-.18-.13-.18-.14-.18-.15-.2-.16-.18-.4-.37-.4-.33-.4-.32-.4-.3-.38-.3-.36-.3-.33-.33-.3-.34-.23-.37-.18-.4-.1-.45v-.42l.08-.4.14-.43.2-.4.26-.42.3-.4.32-.4.34-.4.36-.4.3-.35.3-.37.22-.4.18-.38.12-.4.05-.4-.06-.36-.14-.36-.25-.32-.38-.3-.34-.2-.34-.16-.35-.15-.35-.12-.35-.1-.35-.1-.36-.06-.35-.06-.36-.05-.34-.04-.4-.04-.4-.03-.38-.03-.38-.02h-1.17l-.37.04-.4.04-.38.05-.58 2.2.23.1.22.12.23.14.22.14.23.17.2.18.2.2.2.22.15.25.14.26.16.4.1.4.03.45-.02.44-.07.45-.12.46-.18.45-.23.44-.27.42-.33.4.15.1.15.08.17.1.18.1.2.1.2.12.18.12.2.14.18.14.18.16.47.5.4.46.33.46.28.45.24.45.2.45.16.45.15.45.14.47.14.47h4.53zm-18.18 0l-.3-.26-.34-.23-.35-.2-.36-.2-.36-.2-.35-.22-.34-.24-.34-.28-.28-.33-.24-.4-.14-.44-.1-.47-.03-.5v-.46l.1-.48.15-.47.2-.43.3-.4.38-.36.45-.3.6-.22.6-.2.58-.2.58-.18.6-.2.58-.2.58-.24.6-.27.6-.32.6-.35.24-.15.27-.2.28-.2.3-.24.27-.25.27-.26.23-.28.22-.3.17-.3.12-.3.93-2.83.08-.25.1-.27.1-.27.12-.3.13-.28.14-.28.15-.28.16-.27.18-.24.2-.24.33-.33.34-.25.35-.2.33-.14.33-.14.35-.14.32-.17.32-.24.32-.3.3-.37.16-.2.12-.2.1-.2.1-.18.1-.18.07-.18.07-.18.06-.17.05-.17.03-.16.18.12.17.12.17.13.17.13.18.14.18.14.2.14.2.15.2.14.2.13.74.46.75.34.73.26.75.17.74.12.74.06.74.03.73.03.74.05.73.06.53.06.5.1.5.1.47.1.47.16.46.18.46.22.47.25.47.32.5.35v-3.87l-1 .36-1 .25-1 .13-.96.02-.94-.1-.92-.18-.9-.28-.85-.38-.8-.46-.76-.53-.15-.14-.14-.13-.1-.14-.1-.14-.1-.15-.1-.13-.1-.15-.1-.13-.13-.13-.15-.12-1.16-1.05-1.7 2.26-1.8-2.6-2.57 2.45-1.52-2.9-2.4 1.1-.15.18-.15.2-.12.2-.1.22-.1.23-.1.24-.1.23-.1.24-.1.22-.1.23-.26.55-.28.54-.32.55-.33.53-.35.54-.4.54-.4.53-.43.5-.46.5-.47.5-.27.25-.24.27-.26.28-.22.28-.22.3-.2.3-.2.32-.17.3-.16.3-.14.32-1.83 4.25-.18.26-.18.28-.2.28-.25.26-.25.25-.26.24-.3.24-.3.24-.33.23-.34.2.05.17.06.18.05.2.04.2.06.24.05.22.05.24.03.22.04.23.03.22.34 3 .03.2.04.23.06.2.06.18.07.17.07.15.1.1.12.1.12.06.14.02h4.23zm29.3-31.62v20.7l.06 1.48.17 1.2.26.95.3.74.4.54.4.4.4.26.4.18.35.12.3.1 1 .3 1 .3 1 .26 1 .27 1 .32 1 .35.98.43.97.53.95.66.92.78.07.06.06.05.06.06.06.08.06.06.05.06.06.07.04.05.05.06.03.05.04-.05.03-.06.05-.05.03-.06.05-.04.03-.06.05-.05.05-.05.05-.06.04-.04.92-.8.95-.67 1-.54.98-.45 1-.36 1.02-.33 1.02-.27 1.02-.27 1-.3 1-.3.3-.1.37-.1.4-.2.4-.26.4-.4.4-.53.3-.73.28-.94.17-1.2.06-1.48v-20.7h-26.8zm26.83-2.68v-2.15h-26.87v2.15h26.87zm-13.46 37.8l-.03-.1-.03-.1-.02-.1-.05-.1-.04-.1-.06-.12-.04-.1-.05-.12-.05-.1-.05-.1-.12-.2-.1-.22-.14-.2-.13-.2-.14-.2-.13-.2-.15-.17-.15-.18-.15-.2-.17-.16-.08-.08-.08-.08-.08-.1-.1-.07-.08-.07-.1-.08-.08-.08-.1-.07-.1-.07-.08-.07-.86-.53-.85-.42-.86-.33-.85-.28-.86-.23-.85-.2-.86-.2-.86-.18-.86-.22-.85-.24-.32-.1-.35-.12-.38-.14-.4-.15-.4-.18-.38-.22-.38-.24-.35-.3-.3-.3-.26-.37-.22-.37-.18-.37-.15-.38-.14-.36-.1-.35-.1-.35-.06-.36-.04-.36-.03-.37V2418.25l-.03-.2-.06-.22-.1-.2-.12-.2-.15-.2-.16-.17-.17-.17-.2-.16-.18-.14-.18-.14-.85-.53-.86-.4-.85-.3-.83-.2-.86-.12h-.84l-.85.07-.85.16-.86.25-.88.3-.25.2-.1.24.06.3.14.37.24.4.28.43.32.42.3.42.3.4.23.38.18.4.1.43v.44l-.07.42-.13.43-.2.44-.23.43-.3.42-.3.4-.36.4-.2.24-.24.2-.26.25-.25.24-.23.26-.2.28-.16.3-.1.33v.35l.1.38.1.25.16.24.2.24.23.23.25.22.26.22.26.2.27.2.25.18.22.16.52.42.45.47.4.5.32.53.26.53.2.56.12.56.05.55-.02.54-.1.52h-7.88l-.06-.43-.06-.42-.06-.4-.07-.4-.1-.42-.12-.4-.15-.4-.2-.4-.24-.4-.3-.4-.3-.45-.34-.4-.36-.37-.37-.32-.38-.27-.4-.26-.4-.23-.42-.2-.4-.18-.4-.16.25-.5.33-.5.35-.54.36-.52.3-.52.2-.5.1-.5-.1-.5-.3-.45-.55-.42-.24-.1h-.23l-.22.05-.2.13-.22.17-.2.2-.2.22-.22.24-.2.2-.2.2-.78.6-.72.47-.7.38-.68.32-.66.26-.68.22-.67.23-.7.25-.73.3-.76.34-.3.2-.2.26-.13.3-.06.34v.37l.07.34.13.34.18.3.23.28.28.22.4.24.44.25.44.24.43.25.42.26.37.28.33.3.26.3.18.32.1.36.02.12v.15l.02.15v.32l-.02.16-.04.16-.04.15-.07.14-.1.14h-6.65l-.46-.07-.4-.14-.36-.23-.3-.3-.24-.33-.2-.37-.14-.4-.1-.43-.02-.4.02-.4-.4-3.62-.05-.25-.05-.25-.04-.25-.06-.25-.05-.25-.06-.25-.08-.25-.06-.25-.07-.26-.1-.25.28-.1.28-.13.28-.15.3-.17.32-.2.3-.2.3-.25.26-.26.26-.3.23-.3 1.5-3.63.08-.23.1-.22.08-.23.1-.23.08-.23.1-.2.1-.2.1-.2.1-.17.1-.15-.55-.98-.4-1.06-.26-1.1-.14-1.1-.05-1.1.02-1.03.1-.95.1-.82.13-.68.1-.5-4.55 1.85 2.27-7.7.24-.67.3-.6.35-.5.4-.4.45-.35.47-.26.5-.18.52-.13.55-.05.53.03.8.14.65.26.52.37.4.46.33.52.2.58.13.62.05.66v.66l-.08.66-.84 4.87-.02.17-.02.18-.02.18-.02.18-.02.2V2409.75l.04.16.05.17.2-.17.16-.16.16-.15.16-.17.14-.17.14-.18.15-.17.12-.18.14-.18.14-.18.24-.36.23-.38.2-.38.2-.4.2-.4.15-.4.14-.34.12-.33.08-.27.05-.22-.5-.55.14-.47.2-.47.26-.47.27-.46.28-.47.27-.47.23-.46.18-.45.1-.44.02-.43-1.44-1.2 4.12-5.82-1.54-2.9h8.6l.28.1.3.1.3.14.28.15.3.14.28.14.28.12.27.08.26.02 3.95.03.18.02.15.05.13.06.1.1.07.1.05.13v.3l-.05.15-.08.17-1.27 2.06-.07.13-.05.13-.04.1-.02.1v.27l.03.08.03.08.03.07.48 1.43.26-.22.3-.2.3-.2.32-.2.35-.17.35-.14.36-.12.36-.07.37-.04.37-.02h.2l.2.02.24.02.24.04.26.03.24.05.24.06.25.08.22.1.22.1v-1.98l-.2-.64-.2-.65-.23-.62-.24-.64-.27-.63-.3-.6-.35-.62-.4-.6-.43-.6-.5-.6h-.45l-.4-.1-.35-.16-.3-.22-.26-.3-.2-.3-.15-.36-.08-.36-.03-.37.04-.34.06-.22.1-.2.13-.22.16-.2.18-.2.22-.17.2-.14.23-.1.23-.08.22-.03h.52l.22.03.2.04.2.08.2.1.16.1.16.14.16.15.17.2.12.2.1.2.08.2.05.22.03.2v.2l-.02.22-.04.2-.05.2-.07.2.26.33.28.3.3.27.34.24.35.2.36.2.36.15.37.1.36.1.35.06.45.02h.46l.46-.03.47-.08.46-.12.46-.16.45-.22.44-.26.43-.3.4-.37.18-.2.2-.23.2-.24.18-.26.17-.28.17-.3.13-.27.12-.3.08-.28.04-.28-.2-.12-.16-.12-.17-.13-.14-.14-.14-.16-.13-.17-.1-.2-.08-.22-.06-.25-.03-.28.02-.25.04-.26.08-.24.1-.24.14-.23.17-.22.2-.2.24-.16.24-.13.3-.1.2-.06.2-.03h.4l.2.04.2.05.2.06.2.1.17.12.2.14.27.3.2.33.13.35.07.35v.34l-.05.33-.1.33-.16.3-.2.26-.23.23.2.38.3.4.32.36.37.34.4.33.43.3.42.3.42.22.4.18.37.15.05.02.04.02.06.02h.04l.05.03h.06l.05.03h.06l.05.03H252.52l.07.02H252.68l.04.02h.06l.06.02h.11l.05.02h.1l.05.02h.4l.05.02H253.78l.05.02H254.3l.06-.02h.37l.04-.02H254.94l.05-.02H255.14l.05-.02h.05l.05-.02h.05l.05-.02h.1l.05-.02.05-.02h.05l.05-.03h.03l.04-.02h.06l.04-.03h.02l.03-.03.03-.02h.03l.02-.02.38-.15.4-.2.42-.22.42-.28.43-.3.4-.34.37-.35.33-.38.28-.4.2-.37-.23-.23-.2-.26-.15-.3-.1-.33-.06-.34.02-.35.06-.35.14-.35.2-.32.28-.3.17-.15.18-.12.18-.1.2-.07.2-.06.2-.03h.4l.22.04.2.05.28.1.26.12.2.17.2.18.18.2.15.24.1.24.08.25.05.27v.53l-.07.25-.08.22-.1.2-.12.17-.13.17-.16.15-.17.13-.17.12-.18.12.05.27.08.28.12.3.14.27.16.3.17.27.18.26.2.24.18.23.18.2.4.36.43.32.44.26.46.2.47.16.45.12.47.08.47.03h.46l.44-.02.36-.06.37-.1.37-.12.36-.16.37-.18.34-.2.32-.26.3-.27.3-.3.25-.32-.06-.2-.04-.2-.04-.2V2384.9l.06-.22.07-.2.1-.2.15-.2.16-.2.17-.17.16-.16.16-.1.18-.1.2-.07.2-.04.23-.03h.52l.22.02.23.08.22.1.22.15.2.17.18.2.17.2.13.2.1.22.05.22.04.35-.03.38-.07.36-.14.35-.2.3-.25.3-.3.22-.36.17-.4.08h-.46l-.5.58-.44.6-.4.62-.34.6-.3.63-.28.64-.24.64-.22.63-.2.66-.2.64v1.98l.2-.1.24-.1.24-.07.24-.06.24-.05.25-.04.24-.04.22-.02.2-.02H272.48l.36.05.37.08.35.13.36.14.34.17.34.2.3.2.3.2.25.22.48-1.43.03-.07.02-.08.03-.08v-.08l.02-.1v-.1l-.02-.1-.04-.1-.05-.1-.08-.15-1.26-2.06-.1-.15-.04-.15-.02-.16v-.13l.06-.13.07-.1.1-.1.12-.06.16-.03.2-.02 3.94-.03.26-.02.27-.1.28-.1.28-.14.3-.14.3-.15.3-.14.28-.1.3-.1.28-.02h8.32l-1.53 2.93 4.1 5.83-1.45 1.2.02.42.1.44.2.45.2.46.28.47.28.47.28.47.24.48.2.46.15.47-.5.56.04.24.1.28.1.32.15.35.16.38.2.4.2.4.2.4.24.37.24.35.14.18.14.18.14.18.14.17.14.18.15.17.16.17.15.16.18.16.18.15.06-.18.04-.17v-.77l-.03-.18-.02-.18-.02-.18-.02-.17-.82-4.87-.08-.66-.02-.66.04-.66.13-.62.22-.58.3-.52.4-.46.54-.37.67-.27.78-.15.55-.02.54.04.52.12.5.17.47.26.44.34.4.43.36.5.3.58.24.7 2.3 7.67-4.6-1.85.12.5.12.68.1.82.1.95.02 1.04-.06 1.08-.13 1.1-.26 1.1-.4 1.07-.55.98.1.15.1.17.1.18.1.2.1.22.1.22.08.23.1.22.08.23.1.22 1.48 3.63.23.3.27.3.28.26.28.24.3.2.3.2.3.17.3.16.3.12.25.1-.07.25-.06.25-.07.25-.07.26-.06.24-.06.25-.05.26-.05.26-.05.25-.03.25-.4 3.62.02.4-.03.4-.1.42-.14.4-.2.37-.25.34-.3.3-.35.23-.4.14-.45.06h-6.66l-.1-.12-.07-.13-.04-.15-.04-.16v-.16l-.02-.17v-.3l.02-.15.02-.12.1-.36.18-.33.27-.3.34-.3.38-.26.42-.25.44-.24.44-.23.43-.25.42-.24.27-.22.22-.27.18-.32.13-.34.07-.35v-.38l-.06-.34-.12-.3-.22-.26-.3-.2-.75-.36-.73-.28-.7-.26-.68-.22-.66-.23-.67-.26-.68-.3-.7-.37-.72-.48-.76-.6-.2-.18-.22-.22-.2-.23-.2-.22-.2-.2-.23-.17-.22-.13-.22-.06h-.23l-.25.1-.55.43-.3.46-.1.48.1.5.2.52.3.52.35.52.35.52.3.52.26.5-.4.16-.4.18-.4.2-.4.23-.4.26-.4.28-.36.33-.36.36-.33.4-.32.44-.3.4-.23.4-.2.4-.14.4-.12.4-.1.4-.07.4-.07.43-.06.4-.05.43h-7.92l-.1-.5v-.54l.06-.55.12-.55.2-.55.26-.54.32-.52.4-.5.46-.47.52-.42.22-.17.26-.18.27-.2.26-.2.26-.22.24-.23.23-.23.2-.24.16-.25.1-.25.1-.38-.02-.35-.08-.32-.14-.3-.2-.28-.24-.27-.25-.25-.26-.23-.24-.22-.22-.23-.34-.4-.32-.4-.3-.44-.24-.42-.18-.44-.14-.43-.07-.42v-.43l.1-.43.17-.4.23-.38.28-.4.32-.43.3-.4.3-.43.22-.4.15-.37.04-.32-.08-.25-.25-.18-.87-.3-.86-.25-.86-.16-.86-.08h-.84l-.86.12-.85.2-.84.3-.86.42-.85.53-.2.14-.17.14-.18.17-.18.17-.18.18-.15.2-.12.2-.1.2-.06.2-.03.22v5.24l-.03.36-.05.35-.07.35-.1.36-.1.36-.13.36-.16.37-.2.36-.2.37-.27.37-.3.32-.35.28-.37.24-.4.2-.4.2-.38.15-.38.12-.36.12-.32.1-.85.24-.86.2-.84.2-.86.2-.86.2-.84.2-.86.3-.85.33-.86.44-.85.52-.1.07-.1.07-.1.07-.1.1-.08.07-.1.07-.08.1-.08.08-.1.08-.07.08-.16.17-.16.2-.15.17-.14.18-.15.2-.13.2-.12.2-.13.2-.1.2-.12.2-.06.12-.06.1-.06.1-.05.12-.04.1-.06.1-.04.1-.05.1-.05.1-.03.1zm-9.6-12.48l1.2.2 1.18.3 1.16.4 1.1.48 1.05.56.97.6.9.65.8.7.7.7.6.7.87-.72.9-.64.9-.58.93-.53.94-.5.93-.45.94-.43.92-.4.9-.4.9-.42-1.2-1.4v-13.1l1.2-1.66-1.2-.36-1.1-.35-1.04-.4-.97-.4-.9-.44-.87-.46-.82-.5-.8-.53-.75-.56-.75-.6-.86.6-.9.57-.9.54-.9.5-.96.47-.96.45-1 .4-1 .4-1.06.36-1.08.37 1.35 1.25v13.2l-1.35 1.5zm5.63-3.3l7.93 4.56v-14.2l-7.93-4.08v13.73zm84.88 26.16v24.03l-.02.4-.02.35-.04.32-.04.3-.06.25-.06.23-.08.2-.08.16-.1.14-.1.1-.16.1-.18.07-.2.08-.24.06-.28.05-.3.03-.33.03-.38.02h-2.98v4.32h19.04v-4.32h-3.39l-.34-.04-.3-.04-.27-.05-.24-.06-.2-.1-.2-.07-.14-.1-.1-.1-.1-.12-.1-.15-.06-.2-.06-.22-.06-.26-.04-.3-.04-.3-.02-.36-.02-.38v-24.05h.53l.7.03.66.06.63.12.57.16.54.2.5.25.46.28.42.34.37.4.33.42.3.48.26.54.23.6.2.66.18.73.15.8.1.84.1.9.03.97.02 1.04h4.1v-14.14h-30.5v14.15h4.08l.02-1 .05-.98.08-.9.1-.85.15-.78.17-.73.2-.67.25-.6.27-.55.3-.5.33-.42.38-.4.42-.33.45-.3.5-.25.54-.2.56-.17.63-.1.64-.08.7-.02h.54zm-41.72 23.6v-18.16l16.6 25.78h6V2448.64l.02-.4.02-.34.03-.32.05-.3.05-.25.07-.22.07-.18.1-.17.1-.12.1-.1.15-.1.18-.1.2-.06.24-.06.27-.04.3-.04.34-.03.36-.02H320.85v-4.32H304.3v4.32h3.94l.33.04.3.04.27.05.24.07.2.07.2.1.13.1.13.1.1.1.08.18.1.2.05.2.05.27.05.28.03.32.03.35.02.4v15.23l-14.25-22.43h-12.95v4.32h1.98l.35.02.33.02.3.04.27.05.23.07.2.07.2.1.13.1.13.1.1.1.1.17.06.2.06.23.05.25.06.3.03.32v.35l.03.4V2469.78l-.02.4v.35l-.04.32-.05.3-.04.25-.07.22-.08.2-.1.15-.1.1-.1.12-.15.1-.18.08-.22.08-.23.06-.27.04-.3.04-.33.03-.36.02h-2v4.32h16.33v-4.3h-3.82l-.35-.03-.33-.03-.3-.04-.28-.05-.24-.06-.2-.08-.18-.1-.15-.08-.1-.1-.1-.14-.1-.16-.07-.2-.07-.2-.06-.27-.04-.3-.03-.3-.03-.36v-.38l-.02-.42zm-13.4-27.92H247.7v4.32h2.56l.33.04.3.04.26.06.23.06.2.07.17.08.15.1.1.1.1.13.1.16.06.2.07.23.06.26.05.3.04.33v.36l.03.4V2469.8l-.02.4v.34l-.05.32-.04.3-.05.26-.07.22-.07.2-.07.16-.1.13-.1.1-.16.1-.17.1-.2.06-.24.05-.27.05-.3.04-.34.03-.36.02h-2.2v4.3h32.06v-14.85h-3.93l-.1 1.22-.1 1.14-.15 1.07-.18.97-.18.9-.23.8-.25.7-.28.63-.3.55-.32.46-.38.4-.44.36-.52.3-.6.28-.66.23-.73.2-.8.14-.9.1-.94.05-1.03.03h-6.4v-12h1.77l.46.02.43.03.4.06.37.06.34.1.34.12.28.15.26.16.24.18.2.2.17.25.15.27.15.3.12.33.1.37.08.4.07.44.04.47.04.52v2.52h3.88v-18.26h-3.87l-.02.74-.03.74-.05.72-.06.7-.1.66-.08.6-.12.53-.12.46-.14.37-.16.27-.18.2-.22.18-.25.16-.28.15-.33.12-.35.1-.4.08-.42.05-.46.04H260.3v-10.47h6.9l1 .02.93.04.85.1.78.13.7.17.65.2.56.24.48.28.42.3.35.37.3.4.27.5.25.57.22.64.2.7.17.8.15.87.12.94.1 1.02.08 1.1h3.93v-13.7zm-35 0H226.9v4.32H229.44l.33.04.3.04.27.05.23.07.2.07.2.1.13.1.13.1.1.1.08.18.1.2.05.2.06.27.05.28.04.32v.35l.03.4V2469.78l-.02.4v.35l-.05.32-.04.3-.05.25-.06.22-.1.2-.07.15-.1.12-.12.1-.13.1-.18.1-.22.06-.23.06-.27.05-.3.03-.33.03-.36.02h-2.2v4.3h17.98v-4.3h-3.05l-.32-.04-.3-.04-.26-.04-.23-.07-.2-.08-.17-.08-.14-.1-.13-.1-.1-.1-.07-.18-.07-.2-.07-.2-.05-.27-.04-.3-.03-.33-.03-.36V2448.25l.03-.35.03-.33.05-.3.06-.25.07-.22.07-.2.08-.15.1-.12.1-.1.15-.1.18-.1.2-.06.24-.06.27-.04.3-.04.33-.02.37-.02h2.58v-4.32zm-44 15.22v-10.9h4l.84.04.77.06.72.08.64.1.6.12.5.15.47.18.4.2.35.22.3.26.25.32.23.37.2.4.17.45.13.48.1.5.08.54.06.54.02.55-.02.6-.04.53-.08.5-.12.48-.13.44-.2.4-.2.36-.22.32-.27.3-.3.24-.34.23-.4.2-.48.17-.55.16-.6.12-.67.1-.73.1-.8.05-.87.03-.93.02h-2.87zm-7.78-7.62v20.78l-.02.38-.03.37-.03.3-.04.3-.06.26-.07.22-.07.2-.1.16-.08.13-.1.1-.16.1-.17.07-.2.08-.24.06-.26.05-.3.03-.33.03h-2.55v4.33h17.8v-4.33h-2.89l-.33-.04-.3-.04-.27-.06-.24-.06-.2-.08-.18-.08-.14-.1-.12-.1-.1-.1-.08-.18-.08-.2-.06-.2-.05-.27-.06-.3-.04-.3-.02-.36-.02-.37V2461h4.6l.48.02.5.04.5.06.5.1.47.1.46.14.4.16.38.2.32.2.26.25.22.27.23.28.22.3.2.3.2.35.17.37.15.4.12.44.07.48.05.5V2477h13.27v-4.3h-3.35l-.2-.03-.26-.06-.27-.1-.3-.1-.3-.1-.3-.17-.28-.2-.27-.22-.22-.26-.18-.3-.14-.36-.1-.36-.1-.36-.07-.38-.05-.38-.04-.38-.04-.38-.02-.38-.03-.38-.04-.37-.08-.62-.1-.57-.12-.52-.14-.5-.16-.45-.18-.43-.2-.4-.22-.37-.22-.35-.24-.32-.26-.32-.27-.33-.3-.3-.33-.34-.36-.3-.4-.3-.43-.28-.48-.24-.52-.2-.57-.17.75-.22.73-.25.7-.27.67-.3.67-.35.6-.35.57-.37.52-.4.46-.4.42-.4.36-.46.32-.5.27-.57.23-.6.18-.62.15-.64.1-.66.08-.66.05-.66v-.64l-.03-.9-.13-.86-.2-.83-.27-.8-.34-.76-.4-.72-.45-.66-.48-.6-.53-.53-.58-.48-.6-.4-.68-.38-.74-.32-.8-.28-.86-.24-.93-.2-.98-.15-1.06-.1-1.1-.08-1.2-.02h-19.73v4.32h2.2l.35.02.33.02.3.04.28.05.24.07.2.07.18.08.14.1.12.1.1.13.08.16.07.2.08.23.05.25.05.3.03.32.04.35v.4l.02.4zM171.65 2478l1.56-.04 1.5-.16 1.43-.26 1.38-.36 1.3-.47 1.27-.56 1.2-.68 1.12-.77 1.05-.9 1-.98.94-1.07.82-1.14.73-1.2.63-1.25.54-1.33.43-1.4.34-1.44.24-1.52.14-1.6.05-1.63-.05-1.65-.14-1.6-.24-1.5-.34-1.46-.44-1.4-.53-1.32-.64-1.26-.73-1.2-.83-1.12-.92-1.06-1-.98-1.06-.88-1.13-.77-1.2-.67-1.24-.57-1.3-.47-1.38-.36-1.43-.26-1.5-.14-1.55-.05-1.57.06-1.5.15-1.44.27-1.38.36-1.32.46-1.25.56-1.2.67-1.12.77-1.06.88-1 .97-.93 1.07-.83 1.13-.7 1.2-.65 1.25-.53 1.32-.44 1.4-.34 1.45-.24 1.52-.14 1.58-.06 1.65.05 1.65.14 1.58.23 1.52.34 1.45.44 1.4.54 1.32.63 1.26.73 1.2.83 1.15.92 1.07 1 1 1.07.87 1.12.77 1.2.67 1.24.57 1.3.48 1.38.36 1.43.26 1.5.16 1.54.05zm-.07-32.86l.82.03.78.12.75.17.7.26.68.34.64.4.6.5.56.54.52.65.5.7.44.77.4.83.35.9.3.94.27 1 .2 1.07.17 1.12.12 1.18.07 1.25.02 1.3-.02 1.3-.07 1.24-.12 1.18-.16 1.13-.2 1.07-.27 1-.3.96-.33.9-.4.85-.43.78-.5.7-.5.65-.55.56-.6.5-.63.4-.65.33-.7.27-.73.2-.77.1-.8.03-.8-.04-.8-.1-.73-.2-.7-.24-.68-.35-.63-.4-.6-.5-.57-.55-.53-.63-.48-.7-.45-.8-.4-.82-.35-.9-.3-.94-.26-1-.2-1.08-.18-1.13-.12-1.2-.07-1.25-.03-1.3.02-1.3.06-1.25.12-1.18.16-1.12.22-1.07.25-1 .3-.94.36-.9.4-.84.44-.78.48-.7.52-.64.55-.56.6-.5.6-.4.66-.34.7-.26.73-.2.76-.1.78-.03z" class="a"/></svg>