<svg xmlns="http://www.w3.org/2000/svg" viewBox="-486 2372 200 106.126"><defs><style>.a,.b{fill-rule:evenodd;}.b{fill:#fff;}</style></defs><path d="M-413.13 2432.63c-1.1-2.9-5.2-3.88-7-6.47-.54-4.7-1.27-9.37-.87-14.13.27-.95.42-2 1.55-2a78.53 78.53 0 0 0 16.33 5.3c3.82.6 3.82.6 9.13 1.18a38.4 38.4 0 0 0 6.9 3.25 29.52 29.52 0 0 0 7.2-3.08c.4-.1.8-.22 1.2-.3a81.85 81.85 0 0 0 19.25-4.12l5.3-2.2c2.27 0 1.7 5.5 1.7 6.83-.3 2.9-.62 5.77-.9 8.7-.82 2.5-3.84 3.76-5.8 5.34-.48.52-.94 1.04-1.4 1.56v-4.7a.37.37 0 0 1 .16-.15c0 1.25.04 2.53.07 3.8 1.43-.7.85-3.25.88-4.7.92-.35 1.87-.72 2.78-1.1 2.66-.72 2.66-.72 2.8-.87h-.72c-7.2 2.35-7.2 2.35-11.3 3.54a122.17 122.17 0 0 1-16.34 2.04 111.97 111.97 0 0 1-27.07-2.5c-3.43-1.07-6.82-2.26-10.3-3.17v.3a34.2 34.2 0 0 1 5.34 1.73c.07 1.32.13 2.66.2 4l.72.74c.03-1.3.1-2.57.15-3.82.4.4.07 4.24.07 5zm56.45-4.43c.03-.73.1-1.5.13-2.25.15-.03.3-.06.48-.1-.03.68-.06 1.38-.1 2.08-.14.1-.32.18-.5.27zm-2.2 1.77v-3.23l.64-.28v3.12c-.2.12-.42.24-.63.4zm-56.02 0c-.1-.18-.1-.18-.5-.4v-3.1l.65.27q-.1 1.62-.15 3.23zm-2.35-1.77c-.46-.58-.28-1.6-.3-2.35h.46l.1 2.23a1.73 1.73 0 0 1-.25.12zm1.77 8.4c-.83-.37-1.68-.77-2.5-1.1-3.6-2.26-6.53-4.1-10.9-3.24-3.08 1.47-3.08 1.47-3.5 1.53.03-.17.06-.32.1-.5a11.02 11.02 0 0 1 9.3-1.2c2.34 1.17 4.26 2.36 6.46 3.52 1.83.64 2.78.64 4.06-.95.12-.58.12-.58.27-6.62l.2-.1c4.48 1.8 9.4 2.4 14.16 2.97 12.2.76 24.77 1 36.46-3 .03 3.24-1.16 9.4 3.97 7.85 4.1-2.35 4.1-2.35 6.46-3.5 4.1-1.14 6.13-.83 9.83 1.18-.04.12-.08.22-.1.34-.46-.07-1.35-.65-3.54-1.54-4.83-.88-7.94 1.47-12.06 3.82-2.2.7-4.06.67-4.94-1.68 0-1.2.27-4.82-.34-5.7-7.7 2.74-16.05 2.92-24.14 3.26-8.45-.16-17.3-.46-25.33-3.27-.24 4.1.8 7.6-3.93 7.9zm.15-1.77c-.5-.2-.98-.34-1.46-.52-5.2-3.44-11.13-5.6-16.53-1.12-.13-2.17 2-4.2 3.35-5.65a15.08 15.08 0 0 0-4.33-2.7 3.2 3.2 0 0 0 .23-.47 17.53 17.53 0 0 1 13-1.6 16.44 16.44 0 0 0 .8 4.4c2.44 1.87 5.18 3.36 6.92 5.9v1.03a3.34 3.34 0 0 1-1.98.72zm56.45 0c-.4-.2-.8-.37-1.22-.55-1.55-2.84 5.92-5.65 7.05-7.7.16-1.28.34-2.53.5-3.8a21.13 21.13 0 0 1 9.27-.1c1.4.58 3.05 1 4.12 2.08a12.6 12.6 0 0 0-4.55 2.77c1.48 1.53 3.44 3.4 3.44 5.68-3.63-2.68-6.4-2.98-10.8-1.97-2.63 1.16-5 3.02-7.8 3.6zm-72.2-6.63a7.98 7.98 0 0 0-3.54-2.04c.1-.46.1-.46.28-.55a20.5 20.5 0 0 1 3.7 2.24 5.5 5.5 0 0 1-.43.36zm88.38 0c0-.2-.03-.42-.03-.64a12.22 12.22 0 0 1 3.6-1.95c.03.16.06.35.12.56a13.67 13.67 0 0 0-3.7 2.04z" class="a"/><path d="M-385.27 2385.27h.58l.65-.12.67-.1 1.13-.1 1.7-.26 1.32-.26 1.44-.27 1.3-.27.8-.16.62-.15.43 1.85.55 1.1.52.92.52.6.8.62.48.57-1.07 1.2-.88 1.2-1.16 2.33-.27 1.77.28 2.04.34 1.66.28 1.56.33 1.7.22 1.3-.12 1.76-.34 1.7-.75 2.1-.74 1.32-.7 1.3-.78.93-1.25 1.3-1.1.77-1.53.98-1.95.92-1.75.57-1.7.62-.7.02-2.23-.52-2.93-1.5-1.9-1.28-1.32-.64-.76-.8.5-1.7-1.05-2.3-.13-2.5.43-1.85.37-.92.73-1.3.46-1.3.12-1.08-.6.55-.77.95-.7-.25-.15-1.1v-1.47l.7-1.22.82-.8.7-.42 1.04-.36 1-.2.82.2.76.3.6.4-.05-1.28.1-1.62.45-1.44.73-1.3.8-1.17 1-1.23.93-.8.73-.66.55-1.43.13-1z" class="b"/><path d="M-431.65 2472.76l.15-.16c.06-1.4.15-2.83.2-4.24.35-.7 1.33-.7 2-.73l.15.15c.55.06.82.12 1 .7.07.06.1.12.16.15.13 1.56.07 2.93.9 4.27l.15.16a7.43 7.43 0 0 0 1.92.88l.15.15c.5.1.95.18 1.46.27a.37.37 0 0 0 .16.15 10.5 10.5 0 0 0 6-1.16.37.37 0 0 1 .16-.15c1.86-1.97 2.1-4.08 1.62-6.76l-.15-.16a7.58 7.58 0 0 0-.3-.73c-.04-.06-.1-.1-.13-.12-1.8-2.57-5.43-2.7-8.24-3.18-2.86-1.06-6.2-3.08-6.77-6.4-.03-.06-.1-.1-.15-.16a11.82 11.82 0 0 1 2.5-10.02c.06-.03.1-.1.15-.12a13.35 13.35 0 0 1 6.32-3.08c.06-.06.1-.12.15-.15a30.8 30.8 0 0 1 12.36 1.16c-.22 4.56-.22 4.56-.46 6.76a.6.6 0 0 0-.12.15c-.64.5-1.1.38-1.92.38a5.38 5.38 0 0 1-.83-3.17c-.67-1.73-2.22-1.8-3.87-2.1-3.7-.03-6.47 1.3-6.78 5.34v.15c.25 5.36 6.8 5.48 10.9 6.4 4.33 2.17 5.95 4.58 5.95 9.46a25.8 25.8 0 0 1-1.1 4.27c-.06.06-.12.1-.15.15a14.42 14.42 0 0 1-10.74 6.85c-3.94 0-9.28-.1-12.7-2.4l-.1-2.97zm82.63 5.15a.37.37 0 0 0-.15-.14h-.43c-2.56-.03-5.1-.06-7.66-.06a2.26 2.26 0 0 1-.48-2.78c2.3-.67 2.83-.55 3.35-2.9a179.2 179.2 0 0 0 0-23.95c-.1-.4-.23-.8-.35-1.2a10 10 0 0 0-2.35-.5 1.8 1.8 0 0 1 .3-3.1h9.7q1.6 1.74 3.24 3.45a.37.37 0 0 0 .15.16c.26.33.57.7.88 1.03a.67.67 0 0 1 .12.17c2.32 2.68 4.6 5.37 6.92 8.08a.62.62 0 0 0 .16.12c2.32 2.66 4.64 5.3 7 7.97.23.18.5.37.78.58-.06-15.14-.06-15.14-.22-16.9-.58-1.47-.85-1.4-2.44-1.56-1.68-.83-1.58-2.4-.12-3.4 4.55 0 4.55 0 10.62.2a3.9 3.9 0 0 0 .25.48c.06.06.1.1.15.15v.57l.15.16c-.24 1.13-.27 1.37-1.34 1.83-1.52.18-1.97.33-2.34 1.86v.12c-.03 2.35-.1 4.7-.15 7.08v.12c-.2 8.97-.2 8.97-.2 21.8a1.44 1.44 0 0 1-.65.42.36.36 0 0 0-.15.15q-1.48-.04-2.96-.05c-1.65-.95-2.62-2.6-3.8-4.06-.08-.07-.1-.13-.17-.16-3.72-4.43-7.44-8.82-11.17-13.25-.06-.04-.1-.1-.15-.13-4.8-5.58-4.8-5.58-7-7.96-.02.07-.08.1-.14.16 0 6.84.07 13.64.3 20.45.23.4.4.83.62 1.23 1.04.42 2 .42 2.87 1.1.02.64.02 1.28.05 1.95a6.72 6.72 0 0 1-3.17.73zm-25.87-33.8a.36.36 0 0 1 .16-.15 3.94 3.94 0 0 1 1.16-.98h12.82c1.46.6 1.98 2.1.58 3.12-1.62.26-1.62.26-2.05.5a.7.7 0 0 0-.15.13l-.16.15a3.6 3.6 0 0 0-.36 1.2c-.3 16.32-.3 16.32-.3 22.63.15 3.06.02 3.37 3 3.92.84.97 1.1 2.13-.3 2.93-8.2 0-8.2 0-13.36.15a1.8 1.8 0 0 1-.3-3.23c2.08-.37 2.3-.55 2.72-2.57q.18-11.85.3-23.68c-.67-1.9-.76-1.65-2.72-2-1.03-.53-.94-1.02-1.03-2.12zm-25.87 31.3c.03-.05.1-.08.15-.14a4.2 4.2 0 0 1 .15-.58c2.14-.82 3.63-.4 4.6-2.5.04-1.1.07-2.17.1-3.23.03-.06.1-.1.15-.16q0-9.34.07-18.68c-.28-4.3-3.15-3.02-7-3.02-1.9.97-1.43 5.46-4.45 3.05q-.04-1.77-.1-3.54v-2.34c.04-.16.1-.3.13-.46.1-.27.18-.52.28-.8a1.16 1.16 0 0 1 .34-.15c4.24.13 8.5.28 12.8.43 5.42-.15 10.88-.3 16.3-.43 1.54.46.96 5.65.96 7.1-.7 1.1-1.62 1.14-2.72.62l-.15-.15a11.26 11.26 0 0 0-.8-2.5c-1.88-1.58-5.2-1.03-7.47-.33-.12.23-.2.5-.34.75v24.4a2.15 2.15 0 0 0 .98 1.04.6.6 0 0 1 .12.15c1.04.15 3.15.06 3.54 1.16.03.07.1.1.16.16-.1.55-.16 1.1-.22 1.62-.88.88-2.04.7-3.17.73l-.16-.14c-10.28-.06-10.28-.06-12.93.1a2.36 2.36 0 0 1-1.3-2.15zm-85.02 1.32l-.1-.12c0-.8-.2-1.68.4-2.26.9-.33 2.22-.48 2.55-.67a20.8 20.8 0 0 0 .7-5.3.36.36 0 0 1 .16-.16v-6.18a.6.6 0 0 1 .16-.13q-.1-4.05-.15-8.1v-.14l-.1-6.2c-.96-2.5-3.8-.36-3.8-3.5a3.33 3.33 0 0 1 1.1-1.26h22.64l.64.46c0 .55.03 1.1.03 1.68-.26 1.92.13 6.83-3.3 5.12-.23-.58-.5-2.04-.8-2.62-1.45-1.13-6.5-1.3-8.34-.37a1.93 1.93 0 0 0-.2.5c-.14 3.1-.14 3.1-.14 11.62.52.5 4.9.2 5.8.2a46.66 46.66 0 0 1 4.85-.27 2.38 2.38 0 0 1 .46 1.52c-.06.06-.12.1-.15.16a8.34 8.34 0 0 1-.88 2.97c-.07.03-.1.1-.16.12-3.23.1-6.47-.22-9.7-.22-.4.33-.3 1.22-.36 1.7 0 2.7-.64 6.35 1.22 8.55a8.3 8.3 0 0 1 3.45.94 6.36 6.36 0 0 1-.2 2.4c-.26.08-.54.17-.78.23-4.88-.06-9.76-.1-14.65-.15-.1-.16-.18-.34-.3-.52zm44.14-34.1c.06-.04.1-.1.15-.13h3.38a.38.38 0 0 1 .15-.17 4.3 4.3 0 0 1 3.1.98c0 1.63.04 3.27.04 4.92-.42 1.56-.97 1.7-2.62 1.62-.4-.76-.25-2.14-.98-2.66-.06-.06-.1-.12-.15-.15-2.07-.7-5.25-.33-7.47-.36-.98.24-1.38.24-1.7 1.25-.07 2.84-.1 5.67-.17 8.5.25.5.65.53 1.13.68 3.1-.1 6.18-.18 9.26-.3a2.08 2.08 0 0 1 .95.83 14.48 14.48 0 0 1-.94 3.54c-1.2.03-2.35.1-3.54.15a.63.63 0 0 0-.12-.15q-2.58-.1-5.16-.16a.37.37 0 0 0-.15.17h-.74c-.06.03-.1.1-.16.15a1.05 1.05 0 0 0-.67.58c0 4.12 0 4.12.3 10.13a2.25 2.25 0 0 0 1.57 1.25c2.6-.03 5.18-.03 7.78-.06.06-.07.1-.13.15-.16 2.3-.88 1.3-4.45 4.27-3.44.46.42.15 2.9.15 3.6a.36.36 0 0 0-.15.15 13.02 13.02 0 0 1-1.16 3.84c-7.3.07-14.6-.08-21.94.2-2.23-1.1 0-2.3.83-3.45 1.34-6.26.73-13.73.73-20.02a57.84 57.84 0 0 0-.46-6.9c-1.37-1.77-4.1-.34-3.23-3.7l.82-.63 16.74-.1zm122.37 31.48a.7.7 0 0 1 .13-.15 4.82 4.82 0 0 0 1.25-1.47c1.1-2.4 2.23-4.82 3.33-7.2a.36.36 0 0 1 .16-.15c.9-2.1 1.86-4.2 2.77-6.32a.38.38 0 0 1 .16-.14c.63-1.46 1.27-2.96 1.9-4.43.04-.06.1-.1.16-.15.25-.58.5-1.2.74-1.77l.12-.1c2.3-5.17 2.3-5.17 4.1-8.9 1.24-.6 3.34-.75 4.23.5q3.48 9.7 7 19.4a.6.6 0 0 1 .1.16q1.65 4.32 3.25 8.67c.06.06.12.1.15.15.3.73.58 1.46.88 2.2 2.47.27 2.87.15 2.87 2.8-.3.22-.64.43-.95.68-3.32-.06-6.68-.06-10-.1h-.16c-2.66.07-3.76.5-3.76-2.5.67-1 1.8-.57 2.77-1.12.08-2-1-4.37-1.9-6.1q-4.07-.1-8.12-.13v-.1h-2.66v.1c-.92.53-1.6 3.4-1.98 4.6-.06.5-.16 1.06-.22 1.6 2.32.74 2.78.68 2.3 3.24a3.4 3.4 0 0 1-1.4.52c-1.04 0-1.93-.15-8.7-.15-.92-.94-.65-1.64-.43-2.86l1.9-.73zm12.95-17.82c.02-.03.1-.1.1-.12.38-.86.75-1.68 1.1-2.5a89.27 89.27 0 0 1 3.7 9.85c0 .17-.02.32-.02.47-2.63.03-5.22.1-7.85.12.86-2.66 1.87-5.23 2.97-7.82z" class="a"/><path d="M-410.78 2424.5a.63.63 0 0 1 .15-.1c.18-.04.4-.1.6-.13.04-.12.1-.22.13-.34.06-.03.1-.1.15-.12.1-.5.2-1 .28-1.5a.38.38 0 0 0 .15-.14c.06-.37.1-.76.15-1.16.06-.06.1-.12.15-.15a9.15 9.15 0 0 0 .2-2.38 1.42 1.42 0 0 0-.35-.12l-.15-.16v-.43l.15-.16h.6c.04.07.1.1.13.17.4.06.8.1 1.2.15a.72.72 0 0 0 .15.12h.6a.37.37 0 0 0 .14.15h.58l.15.14c.52.1 1.07.2 1.62.3-.2.67-.17 1.5-.93 1.5-.27-.94-.88-1.2-1.92-1.1-.18.34-.18.34-.58 2.57.15.04.3.1.46.13l.15.15h.88c.06.03.1.1.16.15h.58a1.65 1.65 0 0 1-.25.92 4.88 4.88 0 0 0-.64.12.7.7 0 0 0-.1-.15h-.32l-.15-.15c-.37-.03-.73-.03-1.07-.03-.1.42-.18.88-.24 1.34-.06.06-.12.1-.15.15a4.03 4.03 0 0 0 .15.58c.18.1.4.2.6.28v.52a13.45 13.45 0 0 1-3.3-.6 2.3 2.3 0 0 1-.12-.5zm11.16 2.82c-.03-.06-.1-.1-.12-.16-.4-.02-.8-.1-1.2-.12-.05-.06-.08-.12-.14-.15h-.58c-.06-.07-.1-.13-.15-.16-.53-.06-1.08-.1-1.63-.15l-.15-.17a3.6 3.6 0 0 1-.5-.12v-.36c.62-.3.75-1.06.8-1.7.03-.06.1-.1.16-.15.03-.4.1-.78.12-1.17l.15-.16c.1-.85.22-1.68.3-2.5.15 0 .15 0 .15-.3h-.15v-.28a3.55 3.55 0 0 0-.5-.13v-.52c.56 0 1.1.03 1.7.06.02.04.08.07.1.14h.62l.16.15c1 .1 2.53-.13 2.77 1.03-.06.03-.1.1-.15.12a7.54 7.54 0 0 0-.24.8 2.73 2.73 0 0 0-.48.1v-.6q-.08-.07-.15-.15a2.37 2.37 0 0 1-.43-.15c-.06-.03-.1-.1-.15-.12q-.67-.1-1.32-.16l-.46 2.2h.6a.57.57 0 0 0 .13.16h.9c.05.03.08.1.14.15l.44.1c.07.48.07.48-.12.8a4.93 4.93 0 0 1-1.65-.17l-.15-.14h-.46a.66.66 0 0 0-.12.15v.32a.66.66 0 0 0-.15.12c-.04.67-.04 1.3-.07 1.95.4.08.82.14 1.22.27.06.03.1.1.15.12.25-.04.5-.1.74-.13.06-.07.1-.13.15-.16l.42-.42a.66.66 0 0 1 .15.13c.06.1.1.22.15.3-.06.04-.1.1-.15.16v.28c-.03.06-.1.1-.15.15a5.05 5.05 0 0 1-.25.6c-.15.03-.3.1-.5.12zm4.86.73l-.13-.12a9.3 9.3 0 0 1-2.24-.73 4.2 4.2 0 0 1 .15-1.68h.65c.03.15.1.33.12.5-.15 0-.15 0-.15.26h.15c1 1.92 3.97.12 2.08-1.47-.06-.05-.12-.08-.15-.14-.46-.15-.9-.27-1.32-.42-.06-.07-.12-.1-.15-.16-.15-.15-.3-.27-.45-.42-.06-.06-.1-.13-.16-.16-.94-3.6 2.35-3.57 4.9-2.8v.3a.37.37 0 0 0-.17.15v.58c-.06.06-.12.1-.15.15v.28l-.15.15h-.46v-.85a.66.66 0 0 0-.13-.15c-.3-.24-.3-.24-1.2-.46a.3.3 0 0 0-.1.16h-.3a.37.37 0 0 0-.16.15c-.18.1-.18.1-.45.73a.63.63 0 0 0-.12.15c.55 1.47 2.2 1.28 3.14 2.47.1.37.15.7.25 1.07a.66.66 0 0 0-.16.12 2.63 2.63 0 0 1-2.35 2.22.66.66 0 0 0-.14.13h-.6zm6.62-3.66v-2.66l-1.65.1a3.7 3.7 0 0 0-.2.5h-.52v-1.52q.97-.1 1.95-.12c.03.06.1.1.15.15 1.5-.06 3.02-.1 4.55-.15v1.77c-.2-.06-.4-.1-.58-.15a.37.37 0 0 1-.15-.16c-.04-.1-.1-.2-.13-.33h-1.52c-.03 1.83-.03 3.66-.03 5.5.16.17.16.17.95.3a3.5 3.5 0 0 0-.12.6h-3.6c-.03-.2-.06-.43-.1-.6.28-.1.6-.2.9-.28.02-.98.08-2 .1-2.96zm6.77 1.45c-.06-.06-.12-.1-.15-.15v-1.2c-.06-.02-.1-.08-.15-.1v-1.47c-.06-.06-.1-.13-.16-.16-.03-1.03.12-1.25-.9-1.58v-.53c.48-.18.48-.18 3.28-.4a1.46 1.46 0 0 0 .07.36c-.2.25-.2.25-.52.37-.06.03-.1.1-.16.15v1.16l.16.16v1.35c.06.04.1.1.15.13v1.04c.03.03.1.1.15.15v1.04a.6.6 0 0 0 .16.12l.1.64c.2.06.4.12.66.2v.53a3.68 3.68 0 0 0-.6.12.38.38 0 0 0-.17.16c-.7.03-1.37.1-2.07.12h-.3c0-.22-.03-.4-.03-.6a2.26 2.26 0 0 1 .48-.13v-1.47zm4.55.9c.06-.07.12-.1.15-.16h.15c-.06-.93-.1-1.87-.15-2.8a.36.36 0 0 0-.15-.14v-.9a.7.7 0 0 0-.12-.14v-.74c-.06-.06-.12-.1-.15-.15q-.1-.5-.15-1.04c-.2-.04-.42-.1-.64-.13 0-.2.04-.4.04-.6a.37.37 0 0 0 .15-.16c1.34-.02 1.95-.3 2.96.62a.68.68 0 0 0 .15.12l1 .92c.08.03.1.1.17.12.06.06.1.12.15.15.67.58 1.38 1.16 2.05 1.77.06.03.1.1.15.15h.15c-.06-.52-.1-1-.15-1.5-.06-.03-.1-.1-.15-.12v-.88a.73.73 0 0 0-.13-.16c-.1-.92-.12-1.04-.94-1.3v-.5c.12-.04.24-.07.33-.1l.16-.15c.66-.06 1.36-.12 2.06-.15v.73c-.18.03-.34.06-.5.1-.02.4-.05.82-.1 1.2a.37.37 0 0 1 .14.16v1.03c.07.03.1.1.16.12v1.2c.06.03.1.1.15.15l.28 2.93c-.27.03-.58.06-.85.1-.52-.44-1-.87-1.5-1.26a.7.7 0 0 0-.12-.16c-.05-.05-.1-.1-.14-.14-.4-.34-.8-.67-1.2-1.04-.05-.03-.08-.1-.15-.12-.4-.37-.75-.7-1.15-1.04-.06-.06-.12-.12-.15-.15a2.97 2.97 0 0 0-1.04-.72v1.04c.07.03.1.1.16.15v.73c.06.03.1.1.15.12.12.8.24 1.6.4 2.38a5.82 5.82 0 0 0 .8.12 4.92 4.92 0 0 0-.13.65c-.27.03-.52.06-.76.1-.06.05-.12.08-.16.14-.5 0-1 .04-1.52.04-.03-.2-.06-.4-.1-.6.1 0 .2 0 .28 0zm8.12-1.05c.03-.03.06-.1.12-.12.52-.34.52-1.74.6-2.38.04-.06.1-.1.13-.12.06-.67.1-1.28.15-1.92.07-.07.1-.13.16-.16.03-.58.1-1.2.15-1.77.04-.06.1-.1.13-.12.06-.35.12-.7.15-1.06.07-.03.1-.1.16-.12h.3c.03-.06.1-.1.15-.15.08.06.17.1.26.15a.64.64 0 0 1 .16.12c.45.65.88 1.3 1.34 1.93a.56.56 0 0 0 .12.15c.5.67.98 1.37 1.47 2.04l.15.15c.1.17.2.3.3.47l.16.15a4.02 4.02 0 0 1 .43.58c.05.03.08.1.14.15.2.04.4.07.6.1v.52c-.8.24-1.58.45-2.37.7-.03.03-.1.1-.16.15h-.4a4.42 4.42 0 0 1-.17-.6.6.6 0 0 1 .16-.13 2.57 2.57 0 0 1 .3-.17v-.3a.7.7 0 0 1-.16-.12 2.74 2.74 0 0 1-.16-.3l-.15-.15c-.12-.18-.12-.18-.58-.27a.3.3 0 0 0-.15.12c-.3.06-.58.1-.88.15-.04.03-.1.1-.16.15a7.4 7.4 0 0 0-.73.3c-.06.04-.1.1-.15.13v1.2l.64.1v.5a6.98 6.98 0 0 1-2.23.55v-.58zm1.74-3.23l.15-.15v-1.16a.37.37 0 0 1 .14-.16c.03-.2.03-.4.06-.58 1.2 1.62 1.2 1.62 1.25 1.9-.42.1-.88.2-1.3.3h-.16l-.16-.16z" class="b"/><path d="M-395.34 2410.87a.36.36 0 0 0-.15-.15v-.15a.72.72 0 0 0-.1-.16c-1.14-3.74.66-5.6 1.67-9.1.03-.35.03-.68.1-1.02l-.16-.15a3.22 3.22 0 0 0-.27-.33c-.76-.03-1.1-.16-1.64.33a.36.36 0 0 0-.17.15c-.06.1-.1.2-.15.28h-.15a3.74 3.74 0 0 1 1.2-2.5.5.5 0 0 1 .14-.12 6.6 6.6 0 0 1 3.08-.46l.16.15c2.33 1.16 2.14 2.3 2.05 4.85a.3.3 0 0 0-.12.16c-1.2 2.92-2.5 5.64-1.13 8.66a7.2 7.2 0 0 0 4.33 2.05 3.02 3.02 0 0 0 .3.15h.46a.7.7 0 0 0 .1-.15c.4-.03.8-.1 1.2-.13.07-.06.1-.12.16-.15a1.73 1.73 0 0 1 .42-.15c.06-.06.1-.12.16-.15a2.92 2.92 0 0 1 .3-.15.3.3 0 0 1 .15-.13c2.34-2.1 2.1-4.46.1-6.63a.66.66 0 0 0-.1-.15c-.4-.37-.8-.7-1.2-1.04l-.15-.15c-.4-.4-.76-.8-1.16-1.16l-.16-.15q-.46-.5-.9-1.04c-.05-.06-.1-.1-.14-.15-2.84-4.18-3.8-7.57-.27-11.75a.66.66 0 0 1 .12-.15l.15-.16a22.18 22.18 0 0 1 5.16-3.24c.03-.06.1-.1.12-.15.25-.03.5-.1.77-.15a.38.38 0 0 0 .15.15h1.16c.03.06.1.1.15.15h2.94l.15-.15c.57-.06 1.16-.15 1.77-.2l.1-.2c-.17-.4-.3-.82-.47-1.22a5.68 5.68 0 0 0-.37.76.68.68 0 0 0-.15.13c-.12.18-.12.18-.45.3.15-.46.3-.9.45-1.35a.66.66 0 0 1 .15-.12 4.23 4.23 0 0 1 .16-.6h-.47c-.06.05-.1.1-.15.14h-.28l-.73 1.92a.37.37 0 0 0-.15.16h-.3v-.3c.02-.06.08-.1.15-.16a3.9 3.9 0 0 1 .15-.58.36.36 0 0 1 .15-.15 5.37 5.37 0 0 1 .03-.7c-.24.1-.45.16-.67.23-.1.2-.18.42-.27.64a.76.76 0 0 0-.13.15c-.1.27-.2.58-.3.88h-.42c.1-.3.2-.6.28-.88l.15-.15a1.16 1.16 0 0 1 .13-.34 5.83 5.83 0 0 0-.7-.03.9.9 0 0 0-.15.22.37.37 0 0 0-.15.15c-.1.27-.18.58-.27.88h-.46c.15-.4.3-.8.46-1.2-.34.1-.64.2-.95.3-.12.23-.24.5-.4.75h-.12a2.35 2.35 0 0 1-.26-.12 5.75 5.75 0 0 1 .27-.6h-.75c-.06.02-.1.08-.16.14a.68.68 0 0 0-.13.15 7.7 7.7 0 0 0-.3.73c-.06.03-.1.1-.15.12h-.28c.1-.27.18-.58.28-.85v-.15c-.25.03-.52.06-.77.1-.24.54-.5 1.1-.7 1.67-.12.02-.24.05-.33.08a5.5 5.5 0 0 1 .8-2.32 62.4 62.4 0 0 0 8.5-1.62c.64 2.66 1.22 4.46 3.82 5.74-.03.12-.1.22-.13.34-5.48 4.45-3.3 7.96-2.27 14.52 0 6.53-3.27 10.35-8.9 13.16-1.45.48-2.85.97-4.3 1.5-2.8 0-6.7-2.48-8.84-4.18a6.18 6.18 0 0 1 .85-2.45c-.22-.36-.46-.76-.68-1.1zm.3-29.4c-.03-.38-.03-.75-.06-1.08 4.73-1.84 11.63-2.5 16.27 0a3.6 3.6 0 0 1-.3 2.2c-3.42-1.8-9.4-1.23-13.12-.78-.9.22-1.8.46-2.7.67z" class="a"/><path d="M-387.25 2416.73l.15-.15a4 4 0 0 1 .15-.58h-.42q-.33.88-.62 1.77c-.2-.03-.4-.1-.6-.12a4.24 4.24 0 0 1 .46-1.8h-.42c-.25.52-.5 1.06-.7 1.58q-.3-.13-.62-.24c.1-.3.2-.62.28-.9a.37.37 0 0 1 .15-.15 3.26 3.26 0 0 1 .15-.58h-.45c-.16.43-.3.86-.43 1.3-.25-.05-.5-.08-.73-.14.02-.24.08-.5.1-.73.07-.06.13-.1.16-.15.06-.25.1-.5.15-.73-.7.2-.44 1-.96 1.28a1.64 1.64 0 0 1-.4-.22 3.27 3.27 0 0 1 .36-1.5h-.45a3.2 3.2 0 0 0-.16.58c-.07.03-.1.1-.16.15-.06.3-.06.3-.24.4a2.4 2.4 0 0 0-.5-.23v-.3c.1-.3.22-.6.3-.88v-.17c0-.15 0-.15-.3-.15v.15c-.02.06-.08.1-.14.16-.04.17-.1.4-.13.6a.7.7 0 0 0-.15.12c-.2-.03-.4-.1-.58-.12.03-.3.1-.6.15-.92.03-.03.06-.1.13-.12 0-.18.03-.34.03-.5-.1-.02-.2-.08-.3-.1v.3c-.06.05-.12.08-.15.14-.12.24-.28.5-.37.73-.18-.12-.36-.2-.52-.3v-.42c.03-.06.1-.1.16-.15.12-.42.27-.88.42-1.3a5.7 5.7 0 0 1 1.47 1c.07.06.1.12.16.15a22.06 22.06 0 0 0 3.23 1.5.66.66 0 0 0 .15.12c.64.12 1.25.2 1.92.3l.15.15q1.23-.1 2.47-.15l.15-.15c.67-.15 1.37-.3 2.07-.43a.66.66 0 0 1 .12-.15 4.57 4.57 0 0 1 .6-.16.68.68 0 0 1 .13-.15c.15-.07.3-.1.46-.17l.15-.15c.2-.1.4-.18.58-.27.06-.05.1-.08.16-.14.1-.06.18-.1.27-.16a.37.37 0 0 0 .14-.15c.55-.52 1.1-1.06 1.62-1.6a.67.67 0 0 0 .15-.14 2.8 2.8 0 0 1 .17-.3c.02-.05.1-.08.15-.14.1-.24.18-.5.27-.73l.15-.15c.1-.5.18-.98.3-1.47a.36.36 0 0 1 .15-.14q-.1-1.25-.15-2.5c-.07-.06-.13-.1-.16-.15v-.28c-.07-.06-.1-.12-.16-.15-.24-.55-.5-1.07-.73-1.62-.02-.06-.08-.1-.15-.15a3.18 3.18 0 0 1-.12-.3.64.64 0 0 1-.15-.13c-.24-.36-.5-.7-.73-1.03l-.15-.15c-.3-.35-.62-.7-.9-1.05-.05-.03-.08-.1-.14-.12-.64-.74-2.44-2.2-2.66-3.1 1.83-.05 3.66-.08 5.5-.1.03-.13.06-.25.1-.34l.14-.17c.15-.42.3-.88.46-1.3a.36.36 0 0 1 .15-.16c.24-.7.5-1.37.73-2.04a.6.6 0 0 1 .12-.16v-.3h-6.6v.16c-.2.1-.2.1-1.5 2.92a3.8 3.8 0 0 1-1.73-2.92l-.15-.16v-1.05a.66.66 0 0 1-.15-.12c.1-.58.18-1.13.24-1.68.66-.03 1.8.28 2.7.34l.15.15h5c.03-.05.1-.08.15-.14.58-.06 1.17-.15 1.78-.2.1-.2.18-.38.27-.53.06-.06.1-.1.15-.16.1-.27.2-.57.3-.88.03-.07.1-.1.16-.16.1-.28.18-.58.27-.86a.37.37 0 0 1 .15-.15c.16-.36.3-.7.46-1.04h.12a2.75 2.75 0 0 1 .25.3c-.18.5-.36 1.06-.5 1.58l-.16.15c-.22.55-.4 1.1-.58 1.62-.07.06-.12.12-.16.15-.2.55-.4 1.1-.6 1.62-.04.06-.1.1-.13.15a3.7 3.7 0 0 0-.15.43c0 .15 0 .15.27.15v-.15c.18-.1.18-.1.3-.43.05-.06.08-.1.15-.15a3.88 3.88 0 0 1 .15-.58.36.36 0 0 1 .15-.15c.5-1.3 1-2.57 1.53-3.83.55.55.52.86.2 1.62-.02.02-.08.08-.14.14-.03.2-.1.37-.12.58a.37.37 0 0 0-.16.16c-.1.27-.2.57-.3.88a.64.64 0 0 0-.12.15q-.7 1.68-1.34 3.37c-.06.06-.1.12-.15.15a3.84 3.84 0 0 1-.16.58c-.04.06-.1.1-.13.15-.12.3-.2.6-.3.9l-.16.14c-.4 1.12-.87 2.25-1.3 3.38a.36.36 0 0 0-.15.15c-.06.18-.1.36-.15.58-.04.04-.1.1-.16.16-.1.27-.18.58-.27.88a.37.37 0 0 0-.16.16v.58h.32c.03-.22.1-.4.12-.58.06-.06.12-.13.15-.16.42-1.12.88-2.25 1.34-3.38a.66.66 0 0 1 .12-.16 5.5 5.5 0 0 0 .15-.58c.07-.06.1-.12.17-.15.1-.3.18-.58.3-.88.03-.07.1-.1.12-.16.18-.43.36-.9.5-1.32v2.05c-.78 1.95-1.6 3.94-2.4 5.9-.06.05-.12.08-.15.14.06.16.15.3.2.44q1.2-2.87 2.46-5.7h.28v1.43c-.06.06-.1.12-.12.15-.46 1.13-.9 2.26-1.35 3.4-.02.05-.08.08-.14.14-.1.3-.18.58-.27.88a.37.37 0 0 0-.17.15c-.03.24-.06.48-.1.73a.37.37 0 0 1 .16.15c.12-.3.24-.6.36-.9.06-.05.12-.1.15-.14.1-.3.23-.58.3-.88.04-.06.1-.1.17-.15.03-.18.1-.4.12-.57l.14-.16c.34-.8.67-1.55 1.04-2.35.03.04.1.1.15.16.06 1.7-.55 2.83-1.2 4.42a.63.63 0 0 1-.14.12c-.2.55-.38 1.07-.6 1.62-.02.06-.08.1-.14.15v.3a.37.37 0 0 1 .15.14c.22-.4.4-.8.6-1.2.05-.05.1-.08.14-.14.34-.88.67-1.77 1.04-2.65a.65.65 0 0 1 .15-.13c.13-.24.25-.48.37-.73a3.46 3.46 0 0 1-.22 2.34.38.38 0 0 0-.15.15c-.2.5-.4 1.06-.58 1.58-.06.06-.12.1-.15.15-.22.55-.4 1.1-.6 1.62-.04.06-.1.1-.13.15a8 8 0 0 0-.3.9c-.07.02-.1.08-.16.14a3.9 3.9 0 0 1-.14.58c-.04.06-.1.1-.13.15a6.2 6.2 0 0 0-.15.73.37.37 0 0 0-.15.15 7.3 7.3 0 0 0-.3.74c-.06.02-.1.08-.16.14-.18.52-.4 1.07-.58 1.62-.04.03-.1.1-.16.15a3.33 3.33 0 0 1-1.5 2.02 13 13 0 0 1 .34-1.28.36.36 0 0 1 .15-.15c-.02-.1-.06-.23-.1-.3-.57.72-.57.72-.66 1.03a.7.7 0 0 0-.12.15c-.3.58-.6 1.46-1.46 1.34.02-.12.08-.2.1-.34.07-.03.1-.1.16-.12.22-.58.22-.58.15-.88a.38.38 0 0 0-.14.15c-.18.1-.18.1-.42.73a.67.67 0 0 0-.16.12c-.06.22-.1.4-.15.6-.06.05-.1.1-.15.17a.66.66 0 0 1-.16.12c-.58.24-.58.24-.82.18.03-.1.06-.2.1-.3.05-.06.08-.13.14-.16a7.68 7.68 0 0 1 .3-.9h-.46c-.03.2-.1.4-.12.6-.06.05-.12.08-.15.14-.33.7-.33.86-1.03 1.2h-.15c.06-.22.1-.44.15-.62.03-.06.1-.1.16-.15.02-.2.1-.4.12-.58.06-.07.12-.1.15-.16v-.16h-.4a7.27 7.27 0 0 1-.3.9c-.04.05-.1.08-.13.14-.12.3-.2.6-.3.9-.73.2-.73.2-1 .17.03-.13.1-.23.12-.35a.63.63 0 0 1 .14-.12 3.7 3.7 0 0 1 .15-.6c.02-.07.08-.1.1-.16.07-.25.1-.5.17-.74h-.16c-.02.07-.1.1-.12.16a.96.96 0 0 0-.15.3.38.38 0 0 0-.15.14c-.1.27-.22.58-.3.88a.66.66 0 0 1-.15.13c-.03.2-.1.4-.13.57h-.88c.16-.42.3-.88.43-1.3zm9.27-3.5a.73.73 0 0 1 .13-.16 5.48 5.48 0 0 0 .15-.58c.06-.07.1-.13.15-.16.43-1.13.9-2.26 1.35-3.4a.6.6 0 0 1 .12-.14c.12-.3.2-.6.3-.9.06-.05.1-.08.15-.14a3.85 3.85 0 0 1 .16-.58c.03-.06.1-.1.15-.15.27-.8.58-1.56.88-2.35.03-.06.1-.1.13-.15.05-.12.08-.28.14-.43h.15a8.27 8.27 0 0 1-.6 3.23.38.38 0 0 0-.14.16c-.88 2.2-1.6 4.6-3.3 6.3a3.37 3.37 0 0 1 .06-.58zm4.25-22.38v-.3a.68.68 0 0 0 .15-.12c.52-1.34.52-1.34.76-1.65h.12c.37.28.34.34.37.76-.43.43-.82.9-1.25 1.32z" class="b"/><path d="M-387.1 2412.34a.37.37 0 0 1 .15-.16c.43-1.13.9-2.26 1.32-3.4a.36.36 0 0 1 .15-.14c.1-.3.18-.58.3-.88.03-.03.1-.1.15-.16.03-.18.1-.36.12-.57a.4.4 0 0 0 .15-.16c.12-.33.27-.7.4-1.06.12-.02.2-.05.33-.1q-.36 1.1-.73 2.2l-.15.17c-.03.18-.1.36-.12.58a.36.36 0 0 0-.16.15c-.12.3-.2.58-.3.88a.37.37 0 0 0-.15.16c-.4 1.03-.8 2.04-1.16 3.08h-.45c.06-.2.1-.4.15-.58zm3.97-5.74v.28c-.46 1.12-.9 2.25-1.3 3.38-.08.06-.1.1-.17.15-.18.56-.4 1.08-.58 1.63a.37.37 0 0 0-.15.15c-.1.22-.18.4-.27.6h-.43c2.38-5.6 2.38-5.6 2.63-6.33.27 0 .27 0 .27.15zm-3.54 1.62l.15-.16c.2-.55.4-1.06.6-1.6a.66.66 0 0 1 .13-.17c.26-.5.47-.98.7-1.47 0 .03.08.1.14.15a9.48 9.48 0 0 1-.83 2.35.66.66 0 0 0-.1.15c-.22.52-.4 1.07-.62 1.62a.72.72 0 0 1-.15.12c-.43 1.13-.9 2.26-1.3 3.4-.3-.07-.3-.07-.4-.26.54-1.4 1.1-2.77 1.7-4.15zm2.23 3.96a.6.6 0 0 1 .12-.15c.12-.3.2-.58.3-.88.06-.03.1-.1.15-.16a3.9 3.9 0 0 1 .15-.6c.03-.05.1-.08.16-.14l1.1-2.65a.36.36 0 0 0 .15.16c-.04.24-.07.5-.1.76-.03.03-.1.06-.15.12-.43 1.13-.9 2.26-1.3 3.4-.08.02-.1.08-.17.14a1.43 1.43 0 0 0-.24.34h-.3a1.05 1.05 0 0 1 .12-.34zm-4.13-2.5c.04-.06.1-.1.16-.15.02-.18.08-.4.1-.58.07-.06.1-.12.16-.15a7.78 7.78 0 0 1 .3-.9c.03-.05.1-.08.15-.14.1-.27.2-.58.32-.88l.12-.12c.06-.22.1-.43.15-.62.02-.06.08-.1.14-.15.1-.28.2-.6.28-.86l.15-.15c.1-.38.22-.7.3-1.05.3.06.3.06.43.3a.7.7 0 0 0-.12.15c-.22.52-.4 1.07-.6 1.6-.04.05-.1.08-.17.14-.17.55-.35 1.1-.57 1.62-.03.06-.1.1-.12.15a7.78 7.78 0 0 0-.3.9.37.37 0 0 0-.15.15q-.3.8-.57 1.6a.37.37 0 0 0-.16.16c-.2.5-.45 1-.67 1.48-.06-.06-.1-.12-.15-.15a9.7 9.7 0 0 1 .82-2.35zm-.3-2.35l.16-.15c.08-.3.17-.58.3-.88.02-.07.08-.1.1-.16.22-.55.4-1.06.62-1.6a.66.66 0 0 1 .15-.14l.27-.9c.07-.04.1-.1.16-.13v-.3a2.15 2.15 0 0 1 .42.3l-.12.12q-.17.44-.3.9c-.06.04-.1.1-.15.13-.1.3-.18.6-.27.88-.06.07-.13.1-.16.16a4.23 4.23 0 0 0-.15.58c-.06.06-.12.1-.15.15-.1.3-.2.57-.3.88-.03.06-.1.1-.12.15a7.47 7.47 0 0 0-.3.9c-.06.02-.1.08-.16.14a5.76 5.76 0 0 1-.15.58.66.66 0 0 0-.13.15c-.12.27-.2.58-.3.85l-.15.16c-.15.46-.3.9-.43 1.35-.3-.1-.3-.1-.44-.28.55-1.28 1.07-2.56 1.6-3.84zm-1.92 1.47l.16-.15c.06-.22.1-.4.16-.58.06-.06.1-.13.15-.16.1-.3.18-.56.3-.87l.15-.15c.64-1.62 1.3-3.24 1.98-4.85h.22c.03.06.1.1.15.15a2.77 2.77 0 0 0-.15.46.7.7 0 0 0-.15.12c-.46 1.13-.9 2.25-1.32 3.38-.06.07-.12.1-.15.16a4.03 4.03 0 0 0-.15.58l-.15.15c-.1.3-.2.58-.28.88a.38.38 0 0 0-.15.16 7.5 7.5 0 0 0-.3.9c-.06.02-.1.08-.15.14-.06.18-.1.37-.15.58l-.15.15c-.07.12-.13.28-.22.43a2.84 2.84 0 0 1 .2-1.46zm.16-3.08c.06-.06.1-.13.16-.16v-.3c.06-.03.1-.1.15-.12a7.78 7.78 0 0 1 .3-.88.37.37 0 0 1 .15-.16 4.45 4.45 0 0 1 .12-.6c.06-.04.1-.1.16-.13a4.55 4.55 0 0 1 .15-.6.7.7 0 0 1 .15-.13c.2-.67.43-1.28.67-1.92.12.15.12.15.2.58-.05.06-.1.1-.14.15-.7 1.7-1.37 3.45-2.07 5.16l-.15.16c-.06.18-.12.37-.2.58.1-.55.24-1.1.36-1.62zm11.78-6.93a.62.62 0 0 1 .16-.13v-.15a.36.36 0 0 1 .15-.16h.27v.3a.68.68 0 0 1-.15.13c-.1.3-.18.57-.27.88-.07.06-.13.1-.16.15a4.04 4.04 0 0 0-.15.58c-.07.07-.13.13-.16.16-.1.3-.18.58-.28.88h-.3c.27-.88.58-1.76.88-2.65zm-5.88-4.4c.06-.07.1-.13.15-.16.4-.94.8-1.86 1.2-2.8h.1a2.53 2.53 0 0 1 .17.3c-.06.03-.1.1-.16.15 0 .17-.08.4-.1.57-.07.06-.13.1-.16.15-.36.88-.7 1.77-1.04 2.65h-.3c.06-.3.12-.6.15-.88zm-.6-1.78c.04-.06.1-.1.16-.15.16-.42.28-.88.43-1.3h.43c-.37.87-.73 1.73-1.1 2.65zm2.67.28c.52-1.3.52-1.3.73-1.47.03.06.1.1.12.16-.18.4-.36.87-.58 1.3zm2.04-1.3v.14c-.1.3-.18.58-.27.88a.37.37 0 0 0-.15.16.7.7 0 0 0-.16.12h-.16c-.03-.03-.1-.06-.12-.1.15-.42.27-.82.43-1.22h.42zm.43 1.3a3.2 3.2 0 0 0 .15-.58c.06-.03.1-.1.16-.12a5.1 5.1 0 0 0 .25-.64 1.77 1.77 0 0 1 .37-.13 5.94 5.94 0 0 0-.16.77.68.68 0 0 0-.15.12c-.1.2-.2.4-.3.58h-.3zm1.34 0c.1-.34.2-.67.3-1a.66.66 0 0 1 .13-.16v-.3h.46c-.15.43-.3.88-.46 1.34-.03.03-.1.1-.12.12zm1.32-.43l.15-.15c.1-.34.2-.67.3-1 .2-.04.38-.04.53-.07-.15.46-.33.92-.52 1.37a.36.36 0 0 0-.14.16.7.7 0 0 0-.15.12h-.14c-.13-.1-.13-.1 0-.43zm-2.05 6.2a.64.64 0 0 0-.14.12c-.22.54-.4 1.1-.58 1.6h-.3a6.54 6.54 0 0 1 .7-1.94c.1-.03.2-.06.33-.1v.3zm-1.9.58v-.15a5.9 5.9 0 0 0 .23-.64l.37-.1c-.15.4-.28.77-.4 1.16a1.9 1.9 0 0 0-.22-.27zm-.74-.73v-.16h.15v.16z" class="a"/><path d="M-379.75 2381.88c-.03-.46-.12-.67.1-1.07h.52a7.14 7.14 0 0 0 .06.8c-.2.16-.2.16-.68.28zm-7.35-.88c-.52-1.13-.36-1.65.76-1.65a2.08 2.08 0 0 1 .2 1.22 1.36 1.36 0 0 1-.96.43zm-7.93.45a5.46 5.46 0 0 1 .24-.64c.68-.05.53.44.56.93a2.73 2.73 0 0 1-.27.3q-.3-.28-.53-.58z" class="b"/><path d="M-384.44 2385.27a.37.37 0 0 0-.16.15v.3c-.06.03-.1.1-.15.12v.15c-.03.06-.1.1-.15.15v.27a.7.7 0 0 1-.13.15v.16c-.06.06-.12.1-.15.15v.3a.37.37 0 0 0-.15.15v.12a.38.38 0 0 0-.15.15v.16a.36.36 0 0 0-.16.15v.16c-.06.03-.1.1-.15.12a.66.66 0 0 1-.1.15c-.07.06-.13.1-.16.16a.38.38 0 0 0-.15.14h-.17c-.06.03-.1.1-.15.12a.37.37 0 0 1-.15.15c-.03.07-.1.1-.12.16-.05.06-.1.1-.14.16a1.4 1.4 0 0 0-.3.15.7.7 0 0 0-.13.15.37.37 0 0 0-.15.15.66.66 0 0 0-.15.12l-.15.15c-.06.06-.12.1-.15.15a2.84 2.84 0 0 0-.16.3c-.06.03-.1.1-.15.13a.72.72 0 0 1-.12.15c-.06.06-.12.1-.15.15l-.15.15v.17c-.07.03-.1.1-.16.15-.03.04-.1.07-.15.13v.15a.7.7 0 0 0-.13.15.37.37 0 0 0-.15.15v.15a.37.37 0 0 0-.15.16v.1c-.06.07-.13.1-.16.16v.15c-.05.04-.08.1-.14.16v.28a.55.55 0 0 0-.12.15v.15a.36.36 0 0 0-.15.15v.3a1.75 1.75 0 0 0-.17.43v.43h-.15v1.92h.15v.43a2.77 2.77 0 0 0 .16.46v.3l.14.16v.27h-.15a5.83 5.83 0 0 0-.47-.44c-.06-.06-.1-.12-.15-.15a.37.37 0 0 0-.15-.14h-.13c-.06-.06-.12-.1-.15-.15h-.15c-.03-.05-.1-.08-.15-.14h-.12a.36.36 0 0 1-.16-.16h-.3c-.12-.03-.2-.1-.3-.12h-.58v-.15h-.43v.15h-.6c-.13.03-.22.1-.3.12h-.3c-.07.06-.1.13-.16.16h-.14c-.03.06-.1.1-.12.15h-.16l-.15.16h-.15l-.15.15a.66.66 0 0 0-.12.16.37.37 0 0 0-.15.16.3.3 0 0 0-.15.12.38.38 0 0 0-.15.15c-.06.02-.1.08-.15.14v.15c-.06.02-.1.1-.15.15l-.13.12v.15c-.06.06-.12.1-.15.15v.28a2.7 2.7 0 0 0-.15.3v1.47a2.77 2.77 0 0 0 .15.45l.15.16h.13c.06-.07.1-.13.15-.16.06-.06.1-.12.15-.15.03-.06.1-.1.15-.15v-.27a.37.37 0 0 1 .15-.16v-.15c.03-.07.1-.1.16-.16a.88.88 0 0 1 .28-.27c.06-.07.1-.13.15-.16h.58c.07.04.1.1.16.17v1.15a2.64 2.64 0 0 0-.15.3v.16c-.05.1-.08.18-.14.28v.15a.6.6 0 0 0-.12.16v.15a.66.66 0 0 0-.16.14v.3l-.15.15v.15c-.06.03-.1.1-.15.12v.16c-.03.06-.1.1-.15.15v.15a.66.66 0 0 0-.12.15v.15a.37.37 0 0 0-.15.16v.1c-.06.07-.12.1-.15.16v.15a.38.38 0 0 0-.15.17v.27l-.15.15v.3c-.06.08-.1.17-.15.27v.3a.66.66 0 0 0-.13.15v.58a5.82 5.82 0 0 0-.15.58v.9a3.9 3.9 0 0 0 .15.44v.43c.04.06.1.1.13.15v.43c.06.06.1.12.15.15v.3c.06.03.1.1.15.15v.15l.15.15v.13a.37.37 0 0 0 .15.15c.04.07.1.1.16.16v.15a.7.7 0 0 1 .13.16v.43a.66.66 0 0 0-.12.14v.3a.3.3 0 0 0-.14.13v.18a.37.37 0 0 0-.16.15v.3a.72.72 0 0 0-.15.13v.15l-.15.15v.15a13.3 13.3 0 0 1-4.18-6.92v-3.82c.43-2.16.88-4.3 1.3-6.46 0-2.93-1.03-5.77-3.9-7.2v-.3c2.45-1.2 3.42-3.15 3.85-5.74a78.04 78.04 0 0 0 14.7 1.94zm-10.9-5.43c.06-1.28.12-1.8-1.04-2.44a2.23 2.23 0 0 1-.36-1.26 6.76 6.76 0 0 1-1.1-1.77c1.34-.03 2.07-.1 3.08.98.76 0 1.2-.3 1.92-.3.4.4.24 1.6.24 2.16 1 .13.46-1.58.34-2.07a2.15 2.15 0 0 1 1.2-.24c.4.4.33 1.58.4 2.16.2 0 .42-.03.63-.03v-2.05a2.17 2.17 0 0 0 1.5-.42c.03-.43.03-.83.06-1.26.12-.03.22-.06.34-.1.7-1.67 1.95-1.54 2.65 0 .1.04.22.07.34.1 0 .4 0 .83.03 1.23a3.2 3.2 0 0 0 1.58.55c-.03.64-.03 1.28-.03 1.95.18.03.36.03.58.06.73-.9-.58-3.1 1.64-1.87.1.7-.45 1.28-.06 1.98h.38c.03-3.04.1-1.85 2.16-1.85 1-1.04 1.65-1.07 3.1-.98a3.96 3.96 0 0 1-.96 1.62c-.18 1.42-1 1.4-1.62 2.65.03.4.03.8.06 1.2a2.75 2.75 0 0 0-.5-.14c-.05-.23-.14-.44-.2-.66-.36 0-.7 0-1.07-.03-1.22-.75-4.4-.57-5.86-.57-.92-.73-.86-.76-1.78 0-1.86 0-3.6.3-5.46.3a3.16 3.16 0 0 1-1.62.37c-.03.18-.06.4-.1.6a2.5 2.5 0 0 0-.47.13zM-388.7 2384.7a30.04 30.04 0 0 1-5.75-1.05 1.52 1.52 0 0 1-.06-.37c.75-1 3.26-1.03 4.32-1.18 3.15 0 8.24-.67 11.05 1.06v.37c-2.62 1.46-6.7 1.04-9.58 1.16z" class="a"/><path d="M-394.45 2396.28c-.06-.03-.1-.1-.16-.12-.07-.06-.1-.12-.16-.15v-.14a.7.7 0 0 0-.12-.15v-.15a1.23 1.23 0 0 1-.15-.27v-.15c-.06-.06-.1-.13-.15-.16v-.3c-.06-.03-.1-.1-.16-.12v-.3a.36.36 0 0 0-.15-.16h-.87c-.03-.07-.1-.1-.12-.16a.72.72 0 0 1-.15-.12 2.7 2.7 0 0 1-.15-.3v-.62h.3v.15c.03.06.1.1.12.15l.16.15c.12-.03.2-.1.33-.12a1.48 1.48 0 0 1 .13-.33.7.7 0 0 1-.15-.12v-.16c-.06-.06-.12-.1-.15-.15v-.42a5172.44 5172.44 0 0 0 .46-.46v-.44l-.16-.15c-.07-.05-.13-.08-.16-.14-.06-.06-.12-.1-.15-.16-.06-.03-.1-.1-.15-.15h-.15c0-.12 0-.12-.28-.12v.12c-.3.1-.3.1-.45.3-.03.06-.1.1-.16.16v.43c.07.06.13.1.16.15v.16h-.43l-.15-.16h-.15c-.04-.06-.1-.1-.13-.15-.06-.06-.12-.1-.15-.12v-.14l-.16-.15v-1.03l.15-.15a1.25 1.25 0 0 1 .14-.28.7.7 0 0 1 .13-.15c.06-.07.1-.13.15-.16h.15c.03-.06.1-.1.15-.15h.73c.1.05.2.08.28.14.06.03.1.1.15.15h.15l.16.14.14.16a.72.72 0 0 0 .15.12.66.66 0 0 0 .1.15h.16v-2.04a3.04 3.04 0 0 1 .16-.3v-.28a2.8 2.8 0 0 1 .15-.3v-.15a1.34 1.34 0 0 1 .15-.3v-.15l.12-.12v-.16l.15-.15v-.15c.06-.03.1-.1.15-.12v-.16h.3a2.46 2.46 0 0 0 .15.42 2.9 2.9 0 0 0 .15.3v.12a.3.3 0 0 0 .12.16v.15a3.03 3.03 0 0 0 .15.3v.15a1.16 1.16 0 0 0 .16.27v.3a1.75 1.75 0 0 0 .15.44v1.62q-.04.16-.1.3a1.1 1.1 0 0 0 .22-.3.7.7 0 0 0 .15-.12 1.44 1.44 0 0 1 .3-.15.37.37 0 0 1 .15-.15.7.7 0 0 1 .13-.16h.15a2.7 2.7 0 0 1 .3-.15h.58a3.04 3.04 0 0 1 .3.14l.16.16a.72.72 0 0 1 .12.15.38.38 0 0 1 .15.15c.06.03.1.1.16.12.05.15.08.3.14.46v.58a2.64 2.64 0 0 0-.15.3c-.07.03-.1.1-.17.16l-.27.27a.37.37 0 0 0-.15.14h-.42v-.15c.03-.07.1-.1.12-.16v-.28a.7.7 0 0 0-.12-.15v-.14c-.06-.06-.12-.1-.15-.15a.37.37 0 0 1-.15-.14h-.16v-.13h-.45v.13a1.3 1.3 0 0 1-.28.15l-.16.16v.15c-.06.04-.1.1-.15.16v.16c-.04.03-.1.06-.16.12v.15a.37.37 0 0 1 .15.14 1.44 1.44 0 0 1 .3.15l.14.15v.42c-.06.06-.12.1-.15.16-.07.03-.1.1-.16.15v.12c-.15 0-.15 0-.15.3h.14l.15.15c.26-.06.26-.06.42-.3.06-.04.1-.1.15-.16h.15a.37.37 0 0 0 .15.15v.15a2.77 2.77 0 0 0-.15.45v.16a.63.63 0 0 0-.15.13l-.15.15h-1v.3a.37.37 0 0 0-.14.15v.28c-.06.07-.12.1-.15.16v.15a1.23 1.23 0 0 0-.15.3v.14a.53.53 0 0 0-.12.15v.14a.37.37 0 0 0-.16.15 1.27 1.27 0 0 0-.15.27l-.15.15a.36.36 0 0 1-.15-.15z" class="b"/><path d="M-367.84 2414.23a2.12 2.12 0 0 1-.22-1.16c.52-.5 1.04-.94 1.56-1.4a8.26 8.26 0 0 0 4-2.68c.6-3-2.4-4.35.55-6.76.6-.97.7-1.13 1.8-1.5 0-.24-.03-.52-.03-.76-2.35-.15-4.03-.06-6.04-1.4-1.53-1.74-1.98-3.94-4.55-3.75-.46 1.4-1.53 4.33-.36 5.58 0 1.2.15 1.63.1 2.54a2.27 2.27 0 0 1-1.36.34c-1.02-.98-.6-3.4-.35-4.6.03-1.78.1-3.55.15-5.32 1.1-2.2 4.06.06 4.06-2.38-.88-.27-.98-2.87-1.44-3.78-.24-3.5-1.46-2.57-4.45-4.06h-2.8a2.23 2.23 0 0 1-.5-1.74c1.22-.03 2.35.55 3.58.7 1.82.92 3.72 1.13 5.6 1.8a41.7 41.7 0 0 0 2.05 4.6c3.17.07 4.7-.12 7.08-2.16l.18-.55-.18-.3c-1.13-.05-1.92 1.88-2.93.17-.52-.2-1-.37-1.53-.55 0-.55-.02-1.1-.02-1.65 1.7-.4 2.07-.52 2.8-2.08q1.1-.33 2.23-.62c1.16-1.16 2.6-1.25 4.12-1.52-.06.7-.2 1-.2 1.46.35.3.72.64 1.1.95.3 0 .44-.15.72-.15.27.24.18.5.18.85a5.37 5.37 0 0 0-.52.37c-.03.33-.03.33.12.5.2-.23.2-.23.67-.3a9.2 9.2 0 0 1-.06 1.27h.52a3.12 3.12 0 0 1-.3 1.84 4.83 4.83 0 0 0 .4.36 1.8 1.8 0 0 1-.48 1.07c-.28 1.86-.28 2.2-1.87 3.05a2.23 2.23 0 0 0 .34 1.53c-.43-.03-.8-.06-1.2-.1.2.2.2.2.3.68h-.6a7.9 7.9 0 0 1 .3.73c-.33-.06-.64-.15-.94-.2-.22.17-.22.17-.22.54-.32.03-.7.06-1.02.12a3.56 3.56 0 0 0 .2.5c-.42.32-.42.32-.5.66h-.74c.9 1.28 2.32 1.43 3.57 2.32 1.1 2.07 2.57-.37 4.56 1 .27.43.52.83.8 1.26 1 .03 1.24.18 1.73-.77 0-1.65-.38-2.5-2.27-2.2 0-.34.03-.7.06-1.04-.2-.2-1.53-.8-2.02-1.13a2.6 2.6 0 0 1-.15-2.87 2.33 2.33 0 0 1 .48-.12c.04.12.08.2.1.33.16 0 .34.03.5.03.57-.8.82-1 .75-2h-.67c-.1.3-.15.6-.24.9-.95-.3-.46-1.25-.03-1.8a2.5 2.5 0 0 0 1.72-.3c1.62.67 1.52 1.7 1.68 3.33h.52a7.7 7.7 0 0 1 .24-.77c.18.13.4.25.6.4.07 1.16-.44 1.16-1.5 1.5v.46a1.4 1.4 0 0 1 1 .92c.26.06.54.15.8.2.13.47.23.93.35 1.38 1.05 2.02.37 3.9-1.82 4.5a4.18 4.18 0 0 1-3.5-1.44c-2.9-.1-1.63 2.98-.7 4.57 1.3.74 2.58-.03 3.77.86.06 1.32-.88 1.96-1.28 3.12 0 1.25.34 2.38.27 3.57a1.1 1.1 0 0 0-.33.1c.13 2-.05 2.2-1.9 2.3-.78-.43-.5-1.25-.5-2.05.18-.03.33-.06.5-.1a8.4 8.4 0 0 0 .57-5.88c-.95-.1-1.93.22-2.93.22-2.1-1.08-3.42-2.24-5.92-1.3a21.48 21.48 0 0 0-.5 3.12c.53 1.04.74 1.37-.36 2.13-1.83.74-3.3 1.13-3.5 3.18-.9.1-1.17.2-1.47 1.04a8.24 8.24 0 0 1-2.24.27zm-39.25 0c-.3-.1-.6-.18-.87-.27-.34-.9-.58-.95-1.5-1.04-.12-2.3-2.3-2.65-4.15-3.63-.3-.62 0-1.1.28-1.7a16.58 16.58 0 0 0-.5-3.1c-.45-.18-.45-.18-2.95-.34-1.73 1.35-3.22 1.9-5.3 1.35a3.7 3.7 0 0 0-.58.07c-.5 1.55-.52 5.03 1.07 5.98.02 1.9.08 2.04-1.8 2.04a3.16 3.16 0 0 1-.62-2.3 1.24 1.24 0 0 0-.3-.12c-.06-1.58.5-2.8-.03-4.42a4.06 4.06 0 0 1-1.05-2.23c1.3-1 2.9.12 4.06-1.13.74-1.87 1.92-4.37-.9-4.37-2.64 3.1-7.76.34-5.38-3.02q.16-.73.4-1.45c.33-.06.67-.13 1-.16.06-.25.1-.5.16-.74a.96.96 0 0 0 .73-.36c-.73-.34-2.84-1.5-1.04-2.14.1.27.2.58.3.88h.58c.07-1.92-.1-2.5 1.57-3.44.52.4 1.03.27 1.68.27.45.58.94 1.5 0 1.83q-.15-.45-.25-.9h-.67c-.03 1 .12 1.88 1.22 2a2.72 2.72 0 0 1 .3-.27 1.06 1.06 0 0 1 .3.03c1.13 2.26-.27 3.08-2.14 3.96.04.37.04.7.08 1.07-1.74-.1-2.3.42-2.3 2.2.3.94.77.8 1.7.8 1.33-2.1 2.2-2.1 4.56-1.33.46-.3.46-.3 1.1-1.1a27.9 27.9 0 0 1 3.18-1.62 3.9 3.9 0 0 1 .15-.58h-.76c-.08-.36-.24-.42-.57-.67a4.24 4.24 0 0 1 .3-.48c-.37-.07-.74-.1-1.07-.13v-.37c-.4 0-.76 0-1.16.03a7.4 7.4 0 0 0 .3-.73h-.58c.06-.43.06-.43.24-.65-.33.04-.67.04-.97.07.08-.65.48-.95.17-1.53-1.53-.86-1.7-1.34-1.9-3.05-.42-.64-.42-.64-.48-1.07l.36-.37a4.45 4.45 0 0 1-.28-1.83h.52c-.12-.97-.12-.97-.03-1.28.24.06.5.12.76.2a1.24 1.24 0 0 1 .03-.35c-.33-.34-.88-.7-.4-1.22.34-.03.46.12.76.12a2.9 2.9 0 0 1 1.2-.82c-.13-.52-.22-1.07-.3-1.6 1.5.28 2.9.3 3.96 1.38.8.28 1.58.52 2.38.77.2.4.42.82.64 1.22 1.7 1.16 2.6.03 2.13 2.5-.52.18-1 .36-1.52.55-1.12 1.64-1.73-.22-2.92-.16 0 .3-.03.53-.03.8 2.1 2.14 4.27 2.3 7.14 2.2a14.7 14.7 0 0 1 1.36-2.65 4.38 4.38 0 0 1 .92-2.1c2.77-.58 6.4-2.54 9.18-2.3-.52 1.47-.52 1.47-.73 1.66-.95 0-1.86.04-2.8.04-1.57.76-3.64.76-4.34 2.44-.13 1.56-.65 2.84-.9 4.4-.12.27-.24.5-.33.75-.12.04-.22.1-.34.13-.03.45-.12.67.12 1.07 1.84.36 2.9-.16 3.94 1.43.02 1.7.08 3.42.14 5.16.28 1.5.64 3.38-.36 4.73a1.96 1.96 0 0 1-1.38-.3 17.63 17.63 0 0 0 .1-2.54c1.15-1.12.15-4.17-.34-5.45-1.68-.98-2.47.98-3.18 2.08-2.47 2.77-3.78 2.74-7.44 2.95v.9c1 .05 1.16.23 1.55 1.15.5.5 1.03.95 1.58 1.44 0 .54 0 1.1.03 1.67-1.54 3.42-.93 5.3 3.2 6.53.72.65 2 1.35 1.33 2.45-.45.03-.9.1-1.34.12z" class="a"/><path d="M-382.25 2375.84a1.23 1.23 0 0 1-.02-.34l.45-.1v.44zm-2.07 0c-.03-.12-.1-.28-.12-.43.15 0 .3-.02.46-.02.02.15.1.3.12.46zm-2.63 0c-.24-.28-.24-.28-.24-.58.2-.18.2-.18.53-.2.18.17.18.17.18.7l-.45.08zm-2.65 0c-.06-.12-.1-.28-.15-.43.15 0 .33-.02.5-.02a2.52 2.52 0 0 0 .1.46zm-2.04 0a1.75 1.75 0 0 1-.16-.43h.58v.44zm6 1.65c-.05-.17-.08-.3-.14-.47.33-.1.7-.18 1.03-.28-.3.46-.33.58-.88.74zm-2.77 0a1.02 1.02 0 0 1-.38-.9 1.4 1.4 0 0 0 .95.43c-.03.1-.1.2-.12.33a2.62 2.62 0 0 0-.46.13zm8.96.1c-.03-.17-.06-.4-.1-.57.22-.25.38-.18.7-.18v.67q-.3.04-.6.1zm-15.32 0c-.03-.23-.1-.48-.12-.72h.9a4.88 4.88 0 0 0-.14.64l-.64.1z" class="b"/></svg>