<svg xmlns="http://www.w3.org/2000/svg" viewBox="474 2427 200 49.798"><defs><style>.a,.b{fill-rule:evenodd;}.b{fill:#fff;}</style></defs><path d="M523.54 2434.24a13.24 13.24 0 0 1-.35 13.1 13.62 13.62 0 0 1-13.07 6.6 13.9 13.9 0 0 1-11.15-8.58 13.52 13.52 0 0 1 17.26-17.5 14.24 14.24 0 0 1 7.3 6.38zm50.37-5.38l.9-1h2.5v9.65h-3.73a6.74 6.74 0 0 0-2.7-5.8c-2.17-1.6-5.68-1.4-7.9-.02-3.47 2.4-4.48 6.46-3.96 10.52.5 3.1 2.2 6.4 5.36 7.72a7.05 7.05 0 0 0 7.85-1.67c.7-.36.56-2.27.56-3.4a1.62 1.62 0 0 0-1.04-1.4 9.28 9.28 0 0 0-2.8-.2v-2.96h12.25v2.94c-1.12.04-2.47-.17-2.92 1l-.15.84v8.34h-3.88l-.62-1.43c-3.58 2.77-9.77 2.46-13.62.37a12.7 12.7 0 0 1-6.8-12.43 13.9 13.9 0 0 1 20.73-11.08zm96.27.73c.32-.57.7-1.12.98-1.7.6 0 1.42-.05 2.15-.05v9.45h-3.13a7.03 7.03 0 0 0-3.82-5.77c-2-.86-4.93-1.1-6.8.18a2.84 2.84 0 0 0-1.33 2.37 2.8 2.8 0 0 0 1.32 2.3 8.48 8.48 0 0 0 3.2 1.04c4.03.94 9.17 1.05 10.88 5.67.8 2.88.4 6.32-1.7 8.5-2.75 2.9-7.4 2.9-11.05 1.95a21.57 21.57 0 0 1-4.13-1.73l-.63 1.62h-2.5v-10.1h3.14a6.6 6.6 0 0 0 3.05 5.7c2.15 1.42 5.38 2.18 7.88.9a3.53 3.53 0 0 0 1.9-3.6c-.7-2.87-3.85-2.84-6.14-3.4-3.6-.75-8.27-1.03-9.55-5.27a7.86 7.86 0 0 1 2.52-8.27c3.12-2.47 8.33-2.74 11.88-.97a12.02 12.02 0 0 1 1.87 1.2zm-182.38 1.2c-1.4.18-3.24-.52-4.04.98a3.1 3.1 0 0 0-.34 1.87v16.78c3.7-.2 8.72 1.05 10.17-3.26a14.02 14.02 0 0 0 .44-4.73h2.85v10.98H474v-3c1.32-.02 2.85.3 3.58-.96a4.6 4.6 0 0 0 .4-2.3v-15.2a1.55 1.55 0 0 0-1.34-1.1c-.83-.1-1.77-.02-2.64-.06v-2.95h13.8zM545.94 2444.53l.04.03v-11.22a2.84 2.84 0 0 0-1.43-2.23 6.93 6.93 0 0 0-2.7-.3v-2.95h11.53v2.95c-1.04.04-2.23-.17-2.88.7a4.45 4.45 0 0 0-.77 3.06v18.86h-4.38l-12.88-18.13-.04-.05.04 13.24a1.9 1.9 0 0 0 1.07 1.76 8.25 8.25 0 0 0 2.96.17v3h-11.78v-3c1.16 0 2.78.24 3.27-.83a3.9 3.9 0 0 0 .42-2v-14.4a2.8 2.8 0 0 0-1.2-1.98 4.6 4.6 0 0 0-2.5-.42v-2.95h9.76l11.46 16.68zm72.12 0l.04.03v-11.22a2.84 2.84 0 0 0-1.43-2.23 6.93 6.93 0 0 0-2.7-.3v-2.95h11.53v2.95c-1.04.04-2.23-.17-2.88.7a4.45 4.45 0 0 0-.77 3.06v18.86h-4.38l-12.88-18.13-.05-.05.04 13.24a1.9 1.9 0 0 0 1.06 1.76 8.26 8.26 0 0 0 2.96.17v3h-11.78v-3c1.16 0 2.78.24 3.27-.83a3.9 3.9 0 0 0 .44-2v-14.4a2.8 2.8 0 0 0-1.2-1.98 4.6 4.6 0 0 0-2.5-.42v-2.95h9.76l11.46 16.68zm-23.34-13.73c-1.3-.03-2.8-.24-3.54 1a4.58 4.58 0 0 0-.37 2.1v14.38a2.3 2.3 0 0 0 1.1 1.87c.84.45 1.88.2 2.82.3v2.97h-13.17v-2.98c1.18.03 2.54.24 3.37-.7a3.03 3.03 0 0 0 .52-1.64v-15.14a2.4 2.4 0 0 0-1.1-1.9 9.17 9.17 0 0 0-2.77-.26v-2.95h13.15v2.95zm56.5 7.72h-3c.17-2.82-.14-5.6-2.64-7.06a5.83 5.83 0 0 0-2.33-.66h-6.92v7.68c1.73 0 3.94.14 4.77-1.18a8.4 8.4 0 0 0 .28-3.13h2.67v11.95h-2.67c-.08-1.5.24-3.2-1.2-4.03a10.4 10.4 0 0 0-3.85-.42v8.75h8.07a3.88 3.88 0 0 0 3.44-2.12c.55-1.34.38-3.6.38-5.53h3v10.65h-24.23v-3c1.35-.06 2.98.36 3.7-1.03a6.2 6.2 0 0 0 .27-2.3V2433a2.2 2.2 0 0 0-1.13-1.9 7.75 7.75 0 0 0-2.85-.3v-2.95h24.2v10.66z" class="a"/><path d="M517.18 2433.55c2.36 3.37 2.6 8.8.8 12.5a7.05 7.05 0 0 1-6.46 4.4 6.7 6.7 0 0 1-5.8-3.42 13.2 13.2 0 0 1-.04-13.03 6.76 6.76 0 0 1 6.92-3.4 6.9 6.9 0 0 1 4.58 2.95z" class="b"/><path d="M562.97 2457.52c.66 1 1.28 2.05 1.94 3.06l1.92-3.06h13.8c.65 1 1.2 2.05 1.9 3.06l1.9-3.04h37.18l-5.24 3.66h-7.23l-3.47 2.47h-6.8l-3.52 2.7h-6.88l-3.33 2.5h-5.67v7.93h-11.5v-7.9h-5.65l-3.36-2.52h-6.85l-3.55-2.7h-6.77l-3.48-2.48h-7.26l-5.2-3.68h37.13z" class="a"/><path d="M564.84 2462.66c.98-1.32 1.8-2.78 2.78-4.14h12.23c.9 1.4 1.84 2.78 2.74 4.17l2.53-4.18h33.3l-2.76 1.6h-19.84c-.42.42-.87.72-1.32 1.13h12.24l-1.8 1.48h-15.95l-1.16 1.06h9l-2.02 1.5h-11.56l-1.26 1.1 4.45.04-1.9 1.4h-5.08v-7.43h-11.53v7.43h-5.04c-.63-.48-1.3-.9-1.88-1.4h4.42c-.32-.4-.87-.68-1.26-1.1h-11.53q-1.02-.75-2-1.53h8.9a8.28 8.28 0 0 0-1.1-1.08H542.5q-.93-.7-1.83-1.46h12.26v-.03l-1.32-1.1h-19.83l-2.74-1.6h33.28l2.54 4.12zM576.83 2463.4h-6.1l-1.47-2.1h9zm-3.6 5.07l-4.18 5.83v-11.47c1.35 1.88 2.8 3.72 4.17 5.63zm1.17-.04c1.2-1.87 2.6-3.72 3.92-5.6v11.06zm-.56-.8l-2.36-3.2h4.58zm-2.5 5.16l2.43-3.57 2.54 3.56zm5.7 1.05c.56.66 1.08 1.37 1.6 2.03h-9.6l1.43-2.03z" class="b"/></svg>