<svg xmlns="http://www.w3.org/2000/svg" viewBox="-806 2623 200 85.799"><defs><style>.a{fill-rule:evenodd;}</style></defs><path d="M-695.88 2690.6l-18.96-14.88a.85.85 0 0 0-.43.92v15.5a4.66 4.66 0 0 0 3.3 3.52h11.45a5 5 0 0 0 4.64-5.05zm2.38 1.9l6.75 5.35v-11.52l-6.68-5.27v-6.67h-2.3v4.9l-15.6-12.36v-7.58c.5-3.02 3.16-4.5 5.97-4.57 3.65-.15 6.74 1.33 7.23 5.26v2.6l2.95.07c0-6.8-.5-12.15-8.43-12.15h-10.6c-3.45 0-6.96 3.5-7.6 8.36v7.16a9.63 9.63 0 0 0 1.83 5.06 8.06 8.06 0 0 0-5.12 7.23v15.1c0 2.38 2.6 4.5 5.06 4.4h20.72c2.74-.27 4.98-2.94 5.83-5.4zm-55.2-69.45h-44.38c-6.45.14-12.85 4.36-12.92 13.06V2686c-.07 7.23 3.23 12.92 10.96 13.2h22.96l.84 9.62h13.77l-.77-9.62h12.36c8.5 0 14.25-4.43 14.4-13.2v-49.65c-.3-9-5.27-12.93-14.2-13.28a21.88 21.88 0 0 0-3 0zm3.17 65.94l-.07-55.7c-.22-4.9-3.16-5.12-6.1-5.26h-34.57c-3.93.28-6.25 2.88-6.18 5.4v55.5c0 3.85 2.25 5.25 5.62 5.46h14.33l-1.9-19.73h13.77l1.9 19.8h7.1c3.57-.07 5.82-1.68 6.1-5.47zm122.32-65.95h-44.4c-6.45.14-12.84 4.36-12.9 13.06V2686c-.08 7.23 3.22 12.92 10.95 13.2h22.96l.85 9.62h13.77l-.78-9.63h12.36c8.5 0 14.26-4.42 14.4-13.2v-49.64c-.28-9-5.26-12.93-14.18-13.28a21.9 21.9 0 0 0-3.02 0zm3.16 65.94l-.08-55.7c-.2-4.9-3.16-5.12-6.1-5.26h-34.56c-3.93.28-6.25 2.88-6.18 5.4v55.5c0 3.85 2.25 5.25 5.62 5.46H-647l-1.9-19.73h13.76l1.9 19.8h7.1c3.57-.07 5.8-1.7 6.1-5.48z" class="a"/></svg>