<svg xmlns="http://www.w3.org/2000/svg" viewBox="-166 2623 200 52.765"><defs><style>.a{fill-rule:evenodd;}</style></defs><path d="M26.46 2623v1.56h3.1v18.2L20.42 2628l-3.1-5H5.9v1.56h3.03v28.35H5.9v2.3h7.45v-2.3H11.3v-23.76l9.1 15.25 6.55 10.8h4.92v-30.64H34V2623h-7.54zm3.1 29.9h-1.62l-7.53-12.77-9.1-15.57h3.28l5.82 9.26 9.18 14.33zm-116.5 0h-5.65v-28.34h2.22V2623h-13.84v1.56h3.03v28.35h-3.02v2.3h24.9v-10.73h-2.2c0 5.57-1.07 8.44-5.4 8.44zm-10.07 0h-2.63v-28.34H-97v28.35zm85.44-29.9v1.56h2.95v28.35h-2.96l-11.22-29.9h-8.52l-10.08 29.9h-4.75v-28.34h2.87V2623H-54.8l-6.08 13.6-6.8-13.6h-10.65v1.56h1.97v28.35h-1.97v2.3h6.8v-2.3H-74v-23.5l5.75 11.14 4.75 9.34 8.68-20.9v23.93h-1.96v2.3h20.73v-2.3h-2.62l3.2-10.23h7.6l2.22.08 3.53 10.16h-2.95v2.3H3.1v-2.3H.1v-28.34H3.1V2623h-14.65zm-52.76 21.3l-3.93-8.03-5.74-11.7h2.96l2.8 5.15 5.72 10.5zm14.5 8.6h-2.62v-28.34h2.62v28.35zm21.96-12.45h-7.3l4.35-13.52 2.94 8.36 1.8 5.15h-1.8zm24.4-15.9v28.36h-2.6v-28.34h2.62zm-16.37 28.36l-8.03-23.1-1.8-5.24h3.7l10.23 28.35h-4.1zm-97.9-29.9h-7.7l-9.84 29.9h-2.7v2.3h7.45v-2.3h-2.87l3.12-9.82h10.57l3.2 9.83h-3.2v2.3h14.66v-2.3h-1.72l-10.98-29.9zm2.86 29.9l-9.34-28.34h3.5l9.84 28.35zm-15.08-11.3l4.84-14.67 4.82 14.67h-9.67zm-12.37-2.95c3.03-2.05 3.6-4.5 3.6-7.3s-2.2-8.35-6.88-8.35H-166v1.56h3.12v28.35H-166v2.3h20.4c3.6 0 7.62-3.6 7.62-8.36 0-4.67-1.47-6.14-4.34-8.2zm-12.04-14.1h4.9c.67 0 1.16.9 1.57 2.06a15.64 15.64 0 0 1 .83 4.76 8.8 8.8 0 0 1-.82 3.1c-.65 1.65-1.7 3.12-2.78 3.04h-3.68zm-3.36 28.36h-2.63v-28.34h2.63zm9.83-1.3a1.8 1.8 0 0 1-1.55 1.3h-4.9v-13.1h3.43c1.14 0 2.3 1.55 3.03 3.36a10.02 10.02 0 0 1 .9 3.68 10.94 10.94 0 0 1-.9 4.76l.9 1.3c1.48-1.8 1.65-3.2 1.65-6.06a12.8 12.8 0 0 0-2.55-7.12 6 6 0 0 0-.8-1.07 12.04 12.04 0 0 1 .8-1.06 10.6 10.6 0 0 0 2.54-6.24c0-2.54-.98-4.6-1.63-6.8a6.9 6.9 0 0 1 5.17 6.8c0 3.44-2.7 5.24-5.98 7.3 3.67 2.04 5.97 4.17 5.97 8.2s-1.8 5.3-5.16 6.05zm58.5 14.33a3.98 3.98 0 0 0-1.7-.65c-.26 0-.6-.08-.9-.08h-1.73v10.24h.98v-4.5h.9a2.3 2.3 0 0 0 .74-.1 3.9 3.9 0 0 0 1.7-.56 2.55 2.55 0 0 0 .9-2.2 2.4 2.4 0 0 0-.9-2.14zm-.57 3.7a3.08 3.08 0 0 1-1.14.4h-1.65v-3.93h.82a2.53 2.53 0 0 1 .82.08 1.7 1.7 0 0 1 1.63 1.88 2.1 2.1 0 0 1-.5 1.56zm51.8.64a1.8 1.8 0 0 0-.67-.4c-.33-.17-.65-.42-1.23-.66a2.14 2.14 0 0 1-1.14-1.7 1.44 1.44 0 0 1 .48-1.24 1.77 1.77 0 0 1 1.14-.4 1.85 1.85 0 0 1 1.56.9l.66-.5a2.52 2.52 0 0 0-1-1.07 2.98 2.98 0 0 0-1.22-.17 2.24 2.24 0 0 0-1.8.65 2.4 2.4 0 0 0-.73 1.8 1.73 1.73 0 0 0 .32 1.15 12.95 12.95 0 0 0 .98 1.06c.33.16.74.4 1.4.8.57.34.9.6 1.06.67a2.12 2.12 0 0 1 .57 1.64 2.24 2.24 0 0 1-.57 1.65 1.93 1.93 0 0 1-1.4.5 2 2 0 0 1-2.04-1.57l-.74.4a2.75 2.75 0 0 0 1.23 1.57 3.37 3.37 0 0 0 1.56.4 3.03 3.03 0 0 0 1.73-.5 2.85 2.85 0 0 0 .9-1.05 4.6 4.6 0 0 0 .23-1.48 2.9 2.9 0 0 0-1.3-2.45zm-38.7-5.15l-4.25 10.32h.9l1.3-3.44h4.1l1.24 3.44h1l-4.2-10.57zm0 6.14h-1.7l1.7-4.42v-.08l1.74 4.5zm25.82 4.18h.98v-10.24h-.98zm-11.47-4.83h.08a3.43 3.43 0 0 0 1.72-.65 2.35 2.35 0 0 0 .74-1.88 2.46 2.46 0 0 0-2.46-2.8c-.24 0-.4-.07-.65-.07h-1.8v10.24h.9v-4.83h.5l1.07 1.5 2.38 3.34h1.14l-3.53-4.75zm-1.47-.73v-3.77h1.56a1.8 1.8 0 0 1 1 .4 2.18 2.18 0 0 1-.1 3.04c-.24.1-.57.17-.9.25-.24 0-.57.07-.9.07H-64z" class="a"/></svg>