<svg xmlns="http://www.w3.org/2000/svg" viewBox="-806 2440 200 37.637"><defs><style>.a{fill-rule:evenodd;}</style></defs><path d="M-763.62 2463.3v1.1c0 4.05-.07 7.7-4.43 10.52-4.37 2.77-9.7 2.72-15.28 2.72-13.1 0-22.67-.5-22.67-14.03v-9.57c0-12.25 8.54-14.03 22.67-14.03 13.22 0 19.4 1.04 19.64 12.15v1.43h-13.2v-1.43c-.46-3.3-3.48-3.56-7.85-3.56-7.32 0-8.02 1.72-8.02 7v5.8c0 5.52.32 7.64 8.02 7.64 5.33 0 7.9-.3 7.9-4.64v-1.1h13.23zm13.85 7.67l-2.37 6.37h-13.36l14.45-37.04h19.52l14.64 37.04H-730l-2.5-6.37zm8.74-23.26h-.13l-5.84 16.06h11.94l-5.97-16.05zm46.03 7.12c14.25.8 17.78 2.17 17.78 10.67 0 6.1.32 12.14-20.86 12.14-12.27 0-20.42-.2-20.42-12.35h12.33c0 3.84 1.8 4.24 8.1 4.24 6.02 0 8-.3 8-3.4 0-3.22-.7-3.17-6.73-3.47l-2.83-.15c-11.87-.64-18.8-.6-18.8-11.2s7.76-11.32 20.35-11.32c10.53 0 19.52.15 19.52 10.37v1.53h-12.33c0-3.8-2.05-3.8-7.18-3.8-6.94 0-7.52 1.1-7.52 3.17 0 2.96 1.87 3.06 5.27 3.25l5.33.3zm33.7 22.52h-12.84v-37.04h12.84v37.04zm2.9-13.3v-10.46c0-11.4 9.23-13.58 22.26-13.58s22.28 2.18 22.28 13.58v10.48c0 11.4-9.24 13.58-22.28 13.58s-22.27-2.18-22.27-13.58zm31.32-1.07v-8.35c0-5.48-2.38-6.03-9.05-6.03s-8.86.54-9.06 6.02v8.35c.2 5.53 2.4 6.07 9.07 6.07s9.05-.54 9.05-6.07zm19.38 11h-1.44l-1.1-1.72v1.72h-1.16v-4.46h1.73c.88 0 1.55.43 1.55 1.38a1.2 1.2 0 0 1-.98 1.26l1.4 1.82zm-2.55-2.46h.12c.37 0 .8-.06.8-.55s-.43-.55-.8-.55h-.12z" class="a"/><path d="M-609.8 2475.14a3.23 3.23 0 1 0-2.3-.94 3.2 3.2 0 0 0 2.3.94zm2.68-.53a3.8 3.8 0 1 1 1.12-2.68 3.8 3.8 0 0 1-1.1 2.7z"/></svg>