<svg xmlns="http://www.w3.org/2000/svg" viewBox="-486 2623 200 71.236"><defs><style>.a{fill:#fff;}.a,.b{fill-rule:evenodd;}</style></defs><path d="M-452.97 2639.06h166.95v43.7h-166.95z" class="a"/><path d="M-388.1 2682.84v-9.2h.53l5.25 9.2h-5.8zm0-20.32h1.6a11.1 11.1 0 0 1 3.2.3 2.9 2.9 0 0 1 1.38 1 2.64 2.64 0 0 1 .52 1.63 2.5 2.5 0 0 1-1.05 2.26 7.5 7.5 0 0 1-3.84.7h-1.8zm53.6 20.32v-15.8l11.06 15.8zm27.36 0l1.26-3h12.48l1.2 3zm7.52-18.03l4.08 9.8h-8.2zM-420.63 2682.84h4.83v-25.57h16.7v5.25h-10.95v5.57h10.95v5.24h-10.95v5.58h10.95v3.92h5.24v-25.57h6.15a21.7 21.7 0 0 1 7.18.84 7.23 7.23 0 0 1 3.44 2.8 8.14 8.14 0 0 1 1.3 4.62 7.44 7.44 0 0 1-1.44 4.68 8.88 8.88 0 0 1-4.35 2.85l5.6 9.78h8.92v-20.25h-5.44v-5.3h16.9v5.3h-5.57v20.26h9.6v-25.57h5.75v25.57h5.55v-25.57h5.5l13.1 18.7v-18.7h5.75v25.57h2.73l10.62-25.57h5.88l10.52 25.57.16-.02V2623H-486v59.82l53.14.02h12.23zM-485 2693.26a2.38 2.38 0 0 0 1.14.33c.63 0 .92-.32.92-.7 0-.42-.25-.64-.88-.87-.86-.3-1.27-.78-1.26-1.34a1.46 1.46 0 0 1 1.64-1.4 2.3 2.3 0 0 1 1.16.3l-.22.62a1.85 1.85 0 0 0-.97-.28c-.5 0-.78.3-.78.65 0 .38.27.55.9.8.8.3 1.24.7 1.24 1.4 0 .84-.66 1.43-1.78 1.43a2.7 2.7 0 0 1-1.33-.33zm9.74-3.85l.64 2.4c.14.53.26 1.03.35 1.5h.03c.1-.47.26-.98.42-1.5l.78-2.4h.73l.73 2.37c.17.55.3 1.05.42 1.54h.02c.1-.47.2-.97.37-1.53l.67-2.36h.87l-1.54 4.72h-.78l-.72-2.25a15.05 15.05 0 0 1-.43-1.55 14.3 14.3 0 0 1-.45 1.56l-.76 2.24h-.8l-1.43-4.7h.87zm12.3 0h.85v4.73h-.87zm.4-.86a.54.54 0 0 1-.54-.55.54.54 0 0 1 .56-.56.55.55 0 1 1 0 1.1h-.02zm7.16 4.72a2.38 2.38 0 0 0 1.15.33c.63 0 .92-.3.92-.7 0-.42-.25-.64-.88-.87-.87-.3-1.28-.78-1.27-1.34a1.46 1.46 0 0 1 1.64-1.4 2.3 2.3 0 0 1 1.16.3l-.2.62a1.85 1.85 0 0 0-1-.28c-.5 0-.77.3-.77.65 0 .38.28.56.9.8.82.3 1.24.7 1.24 1.4 0 .84-.65 1.43-1.77 1.43a2.7 2.7 0 0 1-1.33-.33l.2-.64zm9.3 0a2.38 2.38 0 0 0 1.14.33c.63 0 .92-.3.92-.7 0-.42-.25-.64-.88-.87-.86-.3-1.26-.78-1.26-1.34a1.46 1.46 0 0 1 1.64-1.4 2.3 2.3 0 0 1 1.16.3l-.2.62a1.85 1.85 0 0 0-.98-.28c-.5 0-.8.3-.8.65 0 .38.3.56.9.8.83.3 1.25.7 1.25 1.4 0 .84-.66 1.43-1.78 1.43a2.7 2.7 0 0 1-1.33-.33l.2-.64zm17.93-4.98v1.13h1.24v.66h-1.24v2.55c0 .6.17.92.65.92a1.6 1.6 0 0 0 .5-.06l.04.65a2.25 2.25 0 0 1-.77.13 1.23 1.23 0 0 1-.93-.36 1.8 1.8 0 0 1-.34-1.23v-2.58h-.73v-.65h.73v-.87l.85-.25zm7.6 1.13h.87v4.73h-.86zm.43-.85a.53.53 0 0 1-.54-.56.56.56 0 1 1 .55.55zm7.28 2.14c0-.5-.02-.9-.04-1.28h.75l.04.76h.02a1.65 1.65 0 0 1 1.5-.87 1.4 1.4 0 0 1 1.33.95h.02a1.93 1.93 0 0 1 .54-.6 1.63 1.63 0 0 1 1.05-.34c.64 0 1.57.4 1.57 2.06v2.77h-.84v-2.67c0-.9-.34-1.45-1.03-1.45a1.13 1.13 0 0 0-1.03.78 1.4 1.4 0 0 0-.07.43v2.93h-.85v-2.83c0-.75-.33-1.3-.98-1.3a1.2 1.2 0 0 0-1.08.87 1.3 1.3 0 0 0-.06.42v2.83h-.85v-3.44zm14.08.6a1.4 1.4 0 0 1 1.33-1.38 1.22 1.22 0 0 1 1.2 1.4zm3.32.63a2.34 2.34 0 0 0 .03-.4 2 2 0 0 0-1.96-2.22 2.3 2.3 0 0 0-2.22 2.55 2.2 2.2 0 0 0 2.34 2.4 3.83 3.83 0 0 0 1.58-.3l-.15-.62a3.2 3.2 0 0 1-1.3.24 1.5 1.5 0 0 1-1.64-1.64zm14-1.24c0-.5-.03-.9-.05-1.28h.74l.05.76a1.64 1.64 0 0 1 1.5-.87 1.4 1.4 0 0 1 1.35.95h.02a1.9 1.9 0 0 1 .54-.6 1.6 1.6 0 0 1 1.05-.34c.63 0 1.57.4 1.57 2.06v2.77h-.85v-2.67c0-.9-.33-1.45-1.03-1.45a1.13 1.13 0 0 0-1.02.78 1.45 1.45 0 0 0-.07.43v2.93h-.84v-2.83c0-.75-.33-1.3-.98-1.3a1.2 1.2 0 0 0-1.08.87 1.3 1.3 0 0 0-.06.42v2.83h-.85v-3.44zm16.08 1.84a.95.95 0 0 1-.04.28 1.2 1.2 0 0 1-1.16.78.76.76 0 0 1-.8-.82c0-.9 1.07-1.08 2-1.06zm.84-1.3c0-.95-.35-1.93-1.8-1.93a3.02 3.02 0 0 0-1.57.42l.2.57a2.3 2.3 0 0 1 1.22-.36.97.97 0 0 1 1.08 1.1v.1c-1.83-.03-2.85.6-2.85 1.74a1.35 1.35 0 0 0 1.45 1.36 1.77 1.77 0 0 0 1.45-.7h.03l.07.6h.78a7.35 7.35 0 0 1-.07-1.13v-1.76zm7.65.34h.03c.12-.17.28-.37.4-.54l1.4-1.62h1.05l-1.83 1.93 2.1 2.78h-1.07l-1.63-2.27-.44.5v1.78h-.85v-6.93h.86v4.38zm9.7-.27a1.42 1.42 0 0 1 1.34-1.38 1.22 1.22 0 0 1 1.2 1.4zm3.33.63a1.8 1.8 0 0 0 .03-.4 2 2 0 0 0-1.95-2.22 2.3 2.3 0 0 0-2.23 2.56 2.2 2.2 0 0 0 2.34 2.38 3.82 3.82 0 0 0 1.6-.3l-.16-.6a3.2 3.2 0 0 1-1.3.23 1.5 1.5 0 0 1-1.64-1.64zm6.5-1.05c0-.55 0-1.03-.03-1.47h.75l.04.94h.02a1.43 1.43 0 0 1 1.32-1.03.9.9 0 0 1 .24.03v.8a1.42 1.42 0 0 0-.3-.02 1.2 1.2 0 0 0-1.15 1.1 2.42 2.42 0 0 0-.04.4v2.53h-.87v-3.25zm17.7-2.3l-1.13.6-.16-.65 1.4-.74h.73v6.33h-.84zm10.65 5.03a1.17 1.17 0 0 1-1.27-1.2 1.38 1.38 0 0 1 1.16-1.3c.87.25 1.4.62 1.4 1.38a1.15 1.15 0 0 1-1.27 1.13h-.02zm.05-5.92a1.8 1.8 0 0 0-1.97 1.7 1.56 1.56 0 0 0 1.02 1.4v.04a1.83 1.83 0 0 0-1.26 1.7c0 .92.8 1.7 2.13 1.7a1.96 1.96 0 0 0 2.18-1.83 1.76 1.76 0 0 0-1.3-1.65v-.03a1.6 1.6 0 0 0 1.06-1.48 1.64 1.64 0 0 0-1.86-1.56zm-.02.62a1 1 0 0 1 1.08 1.03 1.24 1.24 0 0 1-.97 1.15c-.72-.2-1.2-.54-1.2-1.17a1 1 0 0 1 1.1-1zm10.4 5.3a1.17 1.17 0 0 1-1.25-1.2 1.38 1.38 0 0 1 1.15-1.3c.86.25 1.4.62 1.4 1.4a1.15 1.15 0 0 1-1.28 1.1zm.07-5.92a1.78 1.78 0 0 0-1.97 1.7 1.56 1.56 0 0 0 1.02 1.4v.04a1.84 1.84 0 0 0-1.26 1.7c0 .92.8 1.7 2.13 1.7a1.96 1.96 0 0 0 2.17-1.83 1.76 1.76 0 0 0-1.3-1.65v-.03a1.6 1.6 0 0 0 1.06-1.48 1.64 1.64 0 0 0-1.85-1.56zm-.02.62a.98.98 0 0 1 1.07 1.03 1.24 1.24 0 0 1-.97 1.15c-.73-.2-1.22-.54-1.2-1.17a1 1 0 0 1 1.1-1zm10.4 5.3a1.17 1.17 0 0 1-1.27-1.2 1.38 1.38 0 0 1 1.16-1.3c.86.25 1.4.62 1.4 1.4a1.15 1.15 0 0 1-1.28 1.1zm.06-5.92a1.8 1.8 0 0 0-1.97 1.7 1.56 1.56 0 0 0 1.03 1.4v.04a1.84 1.84 0 0 0-1.27 1.7c0 .92.8 1.7 2.13 1.7a1.96 1.96 0 0 0 2.18-1.83 1.76 1.76 0 0 0-1.28-1.65v-.03a1.6 1.6 0 0 0 1.05-1.48 1.64 1.64 0 0 0-1.85-1.56zm0 .62a.98.98 0 0 1 1.06 1.03 1.24 1.24 0 0 1-.97 1.15c-.74-.2-1.23-.54-1.22-1.17a1 1 0 0 1 1.1-1z" class="b"/><path d="M-432.8 2670.66c0-4.66 3.66-8.2 8.9-8.2h3.25v-5.2h-3.26c-8.14 0-14.14 6.03-14.14 13.4 0 7.4 6 13.4 14.13 13.4h3.24v-5.2h-3.24c-5.24 0-8.9-3.5-8.9-8.18z" class="a"/></svg>