<?xml version="1.0" encoding="utf-8"?>
<!-- Generator: Adobe Illustrator 21.0.0, SVG Export Plug-In . SVG Version: 6.00 Build 0)  -->
<svg version="1.1" id="Слой_1" xmlns="http://www.w3.org/2000/svg" xmlns:xlink="http://www.w3.org/1999/xlink" x="0px" y="0px"
	 viewBox="0 0 400 140" style="enable-background:new 0 0 400 140;" xml:space="preserve">
<style type="text/css">
	.st0{fill:#F68B23;}
	.st1{fill:none;}
</style>
<g>
	<path class="st0" d="M210.1,100.7c-19.4,5.8-44.4,9.4-71.6,9.4c-61.9,0-112-18.2-112-40.6s50.2-40.6,112-40.6
		c46.8,0,86.9,10.4,103.6,25.2c-16.7-11.3-49.6-19-87.4-19C100,35.1,55.7,51.1,55.7,71s44.3,35.9,99.1,35.9
		C175.2,106.8,194.3,104.6,210.1,100.7z"/>
	<path d="M150.1,85.5l-7-22.8h-0.2c0.3,4.6,0.4,7.7,0.4,9.3v13.5h-5.5v-29h8.4l6.9,22.2h0.1l7.3-22.2h8.4v29h-5.7V71.8
		c0-0.6,0-1.4,0-2.2c0-0.8,0.1-3.1,0.3-6.8h-0.2l-7.5,22.7H150.1z M176.1,56.5h5.5v14l-0.1,3.8l-0.2,4.3h0.1l13.4-22h7.4v29h-5.5
		V71.6c0-1.9,0.1-4.6,0.4-8.3H197l-13.5,22.2h-7.4V56.5z M229.6,65.6c0,3.1-1,5.5-2.9,7.2c-2,1.7-4.7,2.5-8.3,2.5h-2.6v10.3h-6.2
		v-29h9.3c3.5,0,6.2,0.8,8,2.3C228.7,60.3,229.6,62.6,229.6,65.6z M215.7,70.2h2c1.9,0,3.3-0.4,4.2-1.1c0.9-0.7,1.4-1.8,1.4-3.3
		c0-1.4-0.4-2.5-1.2-3.2c-0.8-0.7-2-1-3.7-1h-2.8V70.2z"/>
	<path class="st0" d="M257.4,85.5h-6.2V74.3c-2,0.7-3.7,1.2-5.1,1.4c-1.4,0.3-2.7,0.4-3.9,0.4c-2.8,0-4.9-0.7-6.4-2
		c-1.5-1.3-2.3-3.2-2.3-5.6v-12h6.1v10.2c0,1.4,0.3,2.5,1,3.2c0.6,0.7,1.7,1.1,3.3,1.1c1.1,0,2.2-0.1,3.2-0.3c1.1-0.2,2.4-0.6,4-1.1
		v-13h6.2V85.5z M282.5,85.5l-2.1-6.9h-10.6l-2.1,6.9h-6.6l10.2-29.1h7.5l10.3,29.1H282.5z M278.9,73.5c-1.9-6.3-3-9.8-3.3-10.6
		c-0.2-0.8-0.4-1.5-0.5-1.9c-0.4,1.7-1.7,5.9-3.8,12.6H278.9z M305.1,61.2c-2.3,0-4.1,0.9-5.4,2.6c-1.3,1.7-1.9,4.2-1.9,7.3
		c0,6.5,2.4,9.7,7.3,9.7c2,0,4.5-0.5,7.4-1.5v5.2c-2.4,1-5,1.5-8,1.5c-4.2,0-7.5-1.3-9.7-3.8c-2.2-2.6-3.4-6.2-3.4-11
		c0-3,0.5-5.7,1.6-7.9c1.1-2.3,2.7-4,4.7-5.2c2.1-1.2,4.5-1.8,7.2-1.8c2.8,0,5.7,0.7,8.5,2l-2,5c-1.1-0.5-2.2-1-3.3-1.4
		C307.2,61.4,306.2,61.2,305.1,61.2z M345,71c0,4.8-1.2,8.5-3.6,11.1s-5.8,3.9-10.2,3.9c-4.4,0-7.9-1.3-10.2-3.9
		c-2.4-2.6-3.6-6.3-3.6-11.1c0-4.8,1.2-8.5,3.6-11.1c2.4-2.5,5.8-3.8,10.3-3.8c4.5,0,7.9,1.3,10.2,3.9C343.9,62.5,345,66.2,345,71z
		 M323.9,71c0,3.2,0.6,5.7,1.8,7.3c1.2,1.6,3.1,2.5,5.5,2.5c4.9,0,7.4-3.3,7.4-9.8c0-6.5-2.4-9.8-7.3-9.8c-2.4,0-4.3,0.8-5.5,2.5
		C324.5,65.3,323.9,67.7,323.9,71z M351,56.5h9c4.1,0,7.1,0.6,9,1.8c1.9,1.2,2.8,3,2.8,5.6c0,1.7-0.4,3.2-1.2,4.3
		c-0.8,1.1-1.9,1.8-3.2,2v0.2c1.8,0.4,3.2,1.2,4,2.3c0.8,1.1,1.2,2.6,1.2,4.5c0,2.6-1,4.7-2.9,6.2c-1.9,1.5-4.5,2.2-7.8,2.2H351
		V56.5z M357.2,68h3.6c1.7,0,2.9-0.3,3.6-0.8c0.7-0.5,1.1-1.4,1.1-2.6c0-1.1-0.4-1.9-1.2-2.4c-0.8-0.5-2.1-0.7-3.9-0.7h-3.2V68z
		 M357.2,72.9v7.6h4c1.7,0,2.9-0.3,3.8-1c0.8-0.6,1.2-1.6,1.2-3c0-2.4-1.7-3.6-5.2-3.6H357.2z"/>
	<path d="M124,45.1l-5.7,1.4l-17.4,17.4c-0.4-0.1-0.8-0.1-1.2-0.1c-1,0-2,0.3-2.9,0.8L61.7,29.5l-2.7-0.5l0.5,2.7l35.1,35.1
		c-0.5,0.8-0.7,1.8-0.7,2.8c0,3.2,2.6,5.7,5.7,5.7c3.2,0,5.7-2.6,5.7-5.7c0-0.5-0.1-0.9-0.2-1.3l17.4-17.4L124,45.1z M99.7,73.2
		c-2,0-3.7-1.7-3.7-3.7c0-2,1.7-3.7,3.7-3.7c2,0,3.7,1.7,3.7,3.7C103.4,71.5,101.7,73.2,99.7,73.2z"/>
</g>
<rect x="-0.5" y="-0.5" class="st1" width="400" height="140"/>
</svg>
